<svg width="124" height="124" viewBox="0 0 124 124" fill="none" xmlns="http://www.w3.org/2000/svg">
<g clip-path="url(#clip0_1_2921)">
<path d="M124 0H0V124H124V0Z" fill="white"/>
<path d="M33.2678 6.04883H30.2434V9.07322H33.2678V6.04883Z" fill="black"/>
<path d="M36.2921 6.04883H33.2677V9.07322H36.2921V6.04883Z" fill="black"/>
<path d="M39.3164 6.04883H36.292V9.07322H39.3164V6.04883Z" fill="black"/>
<path d="M42.3407 6.04883H39.3163V9.07322H42.3407V6.04883Z" fill="black"/>
<path d="M54.438 6.04883H51.4136V9.07322H54.438V6.04883Z" fill="black"/>
<path d="M57.4623 6.04883H54.4379V9.07322H57.4623V6.04883Z" fill="black"/>
<path d="M60.4865 6.04883H57.4622V9.07322H60.4865V6.04883Z" fill="black"/>
<path d="M66.5353 6.04883H63.5109V9.07322H66.5353V6.04883Z" fill="black"/>
<path d="M69.5595 6.04883H66.5352V9.07322H69.5595V6.04883Z" fill="black"/>
<path d="M72.5869 6.04883H69.5625V9.07322H72.5869V6.04883Z" fill="black"/>
<path d="M81.6599 6.04883H78.6355V9.07322H81.6599V6.04883Z" fill="black"/>
<path d="M84.6842 6.04883H81.6598V9.07322H84.6842V6.04883Z" fill="black"/>
<path d="M87.7085 6.04883H84.6841V9.07322H87.7085V6.04883Z" fill="black"/>
<path d="M36.2921 9.07312H33.2677V12.0975H36.2921V9.07312Z" fill="black"/>
<path d="M39.3164 9.07312H36.292V12.0975H39.3164V9.07312Z" fill="black"/>
<path d="M51.4137 9.07312H48.3893V12.0975H51.4137V9.07312Z" fill="black"/>
<path d="M54.438 9.07312H51.4136V12.0975H54.438V9.07312Z" fill="black"/>
<path d="M57.4623 9.07312H54.4379V12.0975H57.4623V9.07312Z" fill="black"/>
<path d="M63.511 9.07312H60.4866V12.0975H63.511V9.07312Z" fill="black"/>
<path d="M69.5595 9.07312H66.5352V12.0975H69.5595V9.07312Z" fill="black"/>
<path d="M72.5869 9.07312H69.5625V12.0975H72.5869V9.07312Z" fill="black"/>
<path d="M81.6599 9.07312H78.6355V12.0975H81.6599V9.07312Z" fill="black"/>
<path d="M93.7571 9.07312H90.7327V12.0975H93.7571V9.07312Z" fill="black"/>
<path d="M33.2678 12.0974H30.2434V15.1218H33.2678V12.0974Z" fill="black"/>
<path d="M57.4623 12.0974H54.4379V15.1218H57.4623V12.0974Z" fill="black"/>
<path d="M60.4865 12.0974H57.4622V15.1218H60.4865V12.0974Z" fill="black"/>
<path d="M66.5353 12.0974H63.5109V15.1218H66.5353V12.0974Z" fill="black"/>
<path d="M69.5595 12.0974H66.5352V15.1218H69.5595V12.0974Z" fill="black"/>
<path d="M72.5869 12.0974H69.5625V15.1218H72.5869V12.0974Z" fill="black"/>
<path d="M81.6599 12.0974H78.6355V15.1218H81.6599V12.0974Z" fill="black"/>
<path d="M84.6842 12.0974H81.6598V15.1218H84.6842V12.0974Z" fill="black"/>
<path d="M87.7085 12.0974H84.6841V15.1218H87.7085V12.0974Z" fill="black"/>
<path d="M36.2921 15.1218H33.2677V18.1462H36.2921V15.1218Z" fill="black"/>
<path d="M48.3894 15.1218H45.365V18.1462H48.3894V15.1218Z" fill="black"/>
<path d="M51.4137 15.1218H48.3893V18.1462H51.4137V15.1218Z" fill="black"/>
<path d="M60.4865 15.1218H57.4622V18.1462H60.4865V15.1218Z" fill="black"/>
<path d="M63.511 15.1218H60.4866V18.1462H63.511V15.1218Z" fill="black"/>
<path d="M72.5869 15.1218H69.5625V18.1462H72.5869V15.1218Z" fill="black"/>
<path d="M81.6599 15.1218H78.6355V18.1462H81.6599V15.1218Z" fill="black"/>
<path d="M84.6842 15.1218H81.6598V18.1462H84.6842V15.1218Z" fill="black"/>
<path d="M87.7085 15.1218H84.6841V18.1462H87.7085V15.1218Z" fill="black"/>
<path d="M90.7328 15.1218H87.7084V18.1462H90.7328V15.1218Z" fill="black"/>
<path d="M93.7571 15.1218H90.7327V18.1462H93.7571V15.1218Z" fill="black"/>
<path d="M42.3407 18.1465H39.3163V21.1709H42.3407V18.1465Z" fill="black"/>
<path d="M45.365 18.1465H42.3406V21.1709H45.365V18.1465Z" fill="black"/>
<path d="M48.3894 18.1465H45.365V21.1709H48.3894V18.1465Z" fill="black"/>
<path d="M72.5869 18.1465H69.5625V21.1709H72.5869V18.1465Z" fill="black"/>
<path d="M75.6112 18.1465H72.5868V21.1709H75.6112V18.1465Z" fill="black"/>
<path d="M87.7085 18.1465H84.6841V21.1709H87.7085V18.1465Z" fill="black"/>
<path d="M33.2678 21.1708H30.2434V24.1952H33.2678V21.1708Z" fill="black"/>
<path d="M36.2921 21.1708H33.2677V24.1952H36.2921V21.1708Z" fill="black"/>
<path d="M39.3164 21.1708H36.292V24.1952H39.3164V21.1708Z" fill="black"/>
<path d="M42.3407 21.1708H39.3163V24.1952H42.3407V21.1708Z" fill="black"/>
<path d="M45.365 21.1708H42.3406V24.1952H45.365V21.1708Z" fill="black"/>
<path d="M57.4623 21.1708H54.4379V24.1952H57.4623V21.1708Z" fill="black"/>
<path d="M60.4865 21.1708H57.4622V24.1952H60.4865V21.1708Z" fill="black"/>
<path d="M63.511 21.1708H60.4866V24.1952H63.511V21.1708Z" fill="black"/>
<path d="M72.5869 21.1708H69.5625V24.1952H72.5869V21.1708Z" fill="black"/>
<path d="M75.6112 21.1708H72.5868V24.1952H75.6112V21.1708Z" fill="black"/>
<path d="M81.6599 21.1708H78.6355V24.1952H81.6599V21.1708Z" fill="black"/>
<path d="M33.2678 24.1951H30.2434V27.2195H33.2678V24.1951Z" fill="black"/>
<path d="M39.3164 24.1951H36.292V27.2195H39.3164V24.1951Z" fill="black"/>
<path d="M45.365 24.1951H42.3406V27.2195H45.365V24.1951Z" fill="black"/>
<path d="M51.4137 24.1951H48.3893V27.2195H51.4137V24.1951Z" fill="black"/>
<path d="M57.4623 24.1951H54.4379V27.2195H57.4623V24.1951Z" fill="black"/>
<path d="M63.511 24.1951H60.4866V27.2195H63.511V24.1951Z" fill="black"/>
<path d="M69.5595 24.1951H66.5352V27.2195H69.5595V24.1951Z" fill="black"/>
<path d="M75.6112 24.1951H72.5868V27.2195H75.6112V24.1951Z" fill="black"/>
<path d="M81.6599 24.1951H78.6355V27.2195H81.6599V24.1951Z" fill="black"/>
<path d="M87.7085 24.1951H84.6841V27.2195H87.7085V24.1951Z" fill="black"/>
<path d="M93.7571 24.1951H90.7327V27.2195H93.7571V24.1951Z" fill="black"/>
<path d="M39.3164 27.2198H36.292V30.2442H39.3164V27.2198Z" fill="black"/>
<path d="M48.3894 27.2198H45.365V30.2442H48.3894V27.2198Z" fill="black"/>
<path d="M54.438 27.2198H51.4136V30.2442H54.438V27.2198Z" fill="black"/>
<path d="M60.4865 27.2198H57.4622V30.2442H60.4865V27.2198Z" fill="black"/>
<path d="M69.5595 27.2198H66.5352V30.2442H69.5595V27.2198Z" fill="black"/>
<path d="M75.6112 27.2198H72.5868V30.2442H75.6112V27.2198Z" fill="black"/>
<path d="M81.6599 27.2198H78.6355V30.2442H81.6599V27.2198Z" fill="black"/>
<path d="M87.7085 27.2198H84.6841V30.2442H87.7085V27.2198Z" fill="black"/>
<path d="M9.07322 30.2439H6.04883V33.2683H9.07322V30.2439Z" fill="black"/>
<path d="M15.122 30.2439H12.0977V33.2683H15.122V30.2439Z" fill="black"/>
<path d="M27.2191 30.2441H24.1947V33.2685H27.2191V30.2441Z" fill="black"/>
<path d="M30.2434 30.2441H27.219V33.2685H30.2434V30.2441Z" fill="black"/>
<path d="M39.3164 30.2441H36.292V33.2685H39.3164V30.2441Z" fill="black"/>
<path d="M51.4137 30.2441H48.3893V33.2685H51.4137V30.2441Z" fill="black"/>
<path d="M60.4865 30.2441H57.4622V33.2685H60.4865V30.2441Z" fill="black"/>
<path d="M66.5353 30.2441H63.5109V33.2685H66.5353V30.2441Z" fill="black"/>
<path d="M69.5595 30.2441H66.5352V33.2685H69.5595V30.2441Z" fill="black"/>
<path d="M75.6112 30.2441H72.5868V33.2685H75.6112V30.2441Z" fill="black"/>
<path d="M78.6355 30.2441H75.6111V33.2685H78.6355V30.2441Z" fill="black"/>
<path d="M90.7328 30.2441H87.7084V33.2685H90.7328V30.2441Z" fill="black"/>
<path d="M93.7571 30.2441H90.7327V33.2685H93.7571V30.2441Z" fill="black"/>
<path d="M102.83 30.2441H99.8057V33.2685H102.83V30.2441Z" fill="black"/>
<path d="M111.903 30.2441H108.879V33.2685H111.903V30.2441Z" fill="black"/>
<path d="M117.952 30.2441H114.927V33.2685H117.952V30.2441Z" fill="black"/>
<path d="M18.1462 33.2684H15.1218V36.2928H18.1462V33.2684Z" fill="black"/>
<path d="M21.1705 33.2684H18.1461V36.2928H21.1705V33.2684Z" fill="black"/>
<path d="M24.1948 33.2684H21.1704V36.2928H24.1948V33.2684Z" fill="black"/>
<path d="M30.2434 33.2684H27.219V36.2928H30.2434V33.2684Z" fill="black"/>
<path d="M42.3407 33.2684H39.3163V36.2928H42.3407V33.2684Z" fill="black"/>
<path d="M45.365 33.2684H42.3406V36.2928H45.365V33.2684Z" fill="black"/>
<path d="M69.5595 33.2684H66.5352V36.2928H69.5595V33.2684Z" fill="black"/>
<path d="M72.5869 33.2684H69.5625V36.2928H72.5869V33.2684Z" fill="black"/>
<path d="M75.6112 33.2684H72.5868V36.2928H75.6112V33.2684Z" fill="black"/>
<path d="M78.6355 33.2684H75.6111V36.2928H78.6355V33.2684Z" fill="black"/>
<path d="M84.6842 33.2684H81.6598V36.2928H84.6842V33.2684Z" fill="black"/>
<path d="M90.7328 33.2684H87.7084V36.2928H90.7328V33.2684Z" fill="black"/>
<path d="M99.8058 33.2684H96.7814V36.2928H99.8058V33.2684Z" fill="black"/>
<path d="M108.879 33.2684H105.854V36.2928H108.879V33.2684Z" fill="black"/>
<path d="M114.927 33.2684H111.903V36.2928H114.927V33.2684Z" fill="black"/>
<path d="M117.952 33.2684H114.927V36.2928H117.952V33.2684Z" fill="black"/>
<path d="M9.07322 36.2927H6.04883V39.3171H9.07322V36.2927Z" fill="black"/>
<path d="M12.0976 36.2927H9.07324V39.3171H12.0976V36.2927Z" fill="black"/>
<path d="M24.1948 36.2927H21.1704V39.3171H24.1948V36.2927Z" fill="black"/>
<path d="M27.2191 36.2927H24.1947V39.3171H27.2191V36.2927Z" fill="black"/>
<path d="M33.2678 36.2927H30.2434V39.3171H33.2678V36.2927Z" fill="black"/>
<path d="M45.365 36.2927H42.3406V39.3171H45.365V36.2927Z" fill="black"/>
<path d="M48.3894 36.2927H45.365V39.3171H48.3894V36.2927Z" fill="black"/>
<path d="M51.4137 36.2927H48.3893V39.3171H51.4137V36.2927Z" fill="black"/>
<path d="M54.438 36.2927H51.4136V39.3171H54.438V36.2927Z" fill="black"/>
<path d="M60.4865 36.2927H57.4622V39.3171H60.4865V36.2927Z" fill="black"/>
<path d="M63.511 36.2927H60.4866V39.3171H63.511V36.2927Z" fill="black"/>
<path d="M69.5595 36.2927H66.5352V39.3171H69.5595V36.2927Z" fill="black"/>
<path d="M78.6355 36.2927H75.6111V39.3171H78.6355V36.2927Z" fill="black"/>
<path d="M81.6599 36.2927H78.6355V39.3171H81.6599V36.2927Z" fill="black"/>
<path d="M84.6842 36.2927H81.6598V39.3171H84.6842V36.2927Z" fill="black"/>
<path d="M90.7328 36.2927H87.7084V39.3171H90.7328V36.2927Z" fill="black"/>
<path d="M96.7815 36.2927H93.7571V39.3171H96.7815V36.2927Z" fill="black"/>
<path d="M99.8058 36.2927H96.7814V39.3171H99.8058V36.2927Z" fill="black"/>
<path d="M102.83 36.2927H99.8057V39.3171H102.83V36.2927Z" fill="black"/>
<path d="M105.854 36.2927H102.83V39.3171H105.854V36.2927Z" fill="black"/>
<path d="M108.879 36.2927H105.854V39.3171H108.879V36.2927Z" fill="black"/>
<path d="M111.903 36.2927H108.879V39.3171H111.903V36.2927Z" fill="black"/>
<path d="M117.952 36.2927H114.927V39.3171H117.952V36.2927Z" fill="black"/>
<path d="M18.1462 39.317H15.1218V42.3414H18.1462V39.317Z" fill="black"/>
<path d="M24.1948 39.317H21.1704V42.3414H24.1948V39.317Z" fill="black"/>
<path d="M30.2434 39.317H27.219V42.3414H30.2434V39.317Z" fill="black"/>
<path d="M36.2921 39.317H33.2677V42.3414H36.2921V39.317Z" fill="black"/>
<path d="M39.3164 39.317H36.292V42.3414H39.3164V39.317Z" fill="black"/>
<path d="M42.3407 39.317H39.3163V42.3414H42.3407V39.317Z" fill="black"/>
<path d="M45.365 39.317H42.3406V42.3414H45.365V39.317Z" fill="black"/>
<path d="M48.3894 39.317H45.365V42.3414H48.3894V39.317Z" fill="black"/>
<path d="M51.4137 39.317H48.3893V42.3414H51.4137V39.317Z" fill="black"/>
<path d="M66.5353 39.317H63.5109V42.3414H66.5353V39.317Z" fill="black"/>
<path d="M69.5595 39.317H66.5352V42.3414H69.5595V39.317Z" fill="black"/>
<path d="M75.6112 39.317H72.5868V42.3414H75.6112V39.317Z" fill="black"/>
<path d="M78.6355 39.317H75.6111V42.3414H78.6355V39.317Z" fill="black"/>
<path d="M90.7328 39.317H87.7084V42.3414H90.7328V39.317Z" fill="black"/>
<path d="M96.7815 39.317H93.7571V42.3414H96.7815V39.317Z" fill="black"/>
<path d="M102.83 39.317H99.8057V42.3414H102.83V39.317Z" fill="black"/>
<path d="M105.854 39.317H102.83V42.3414H105.854V39.317Z" fill="black"/>
<path d="M9.07322 42.3416H6.04883V45.3659H9.07322V42.3416Z" fill="black"/>
<path d="M12.0976 42.3416H9.07324V45.3659H12.0976V42.3416Z" fill="black"/>
<path d="M27.2191 42.3414H24.1947V45.3658H27.2191V42.3414Z" fill="black"/>
<path d="M36.2921 42.3414H33.2677V45.3658H36.2921V42.3414Z" fill="black"/>
<path d="M45.365 42.3414H42.3406V45.3658H45.365V42.3414Z" fill="black"/>
<path d="M51.4137 42.3414H48.3893V45.3658H51.4137V42.3414Z" fill="black"/>
<path d="M54.438 42.3414H51.4136V45.3658H54.438V42.3414Z" fill="black"/>
<path d="M57.4623 42.3414H54.4379V45.3658H57.4623V42.3414Z" fill="black"/>
<path d="M78.6355 42.3414H75.6111V45.3658H78.6355V42.3414Z" fill="black"/>
<path d="M90.7328 42.3414H87.7084V45.3658H90.7328V42.3414Z" fill="black"/>
<path d="M99.8058 42.3414H96.7814V45.3658H99.8058V42.3414Z" fill="black"/>
<path d="M102.83 42.3414H99.8057V45.3658H102.83V42.3414Z" fill="black"/>
<path d="M108.879 42.3414H105.854V45.3658H108.879V42.3414Z" fill="black"/>
<path d="M117.952 42.3414H114.927V45.3658H117.952V42.3414Z" fill="black"/>
<path d="M15.122 45.3658H12.0977V48.3902H15.122V45.3658Z" fill="black"/>
<path d="M21.1705 45.3657H18.1461V48.3901H21.1705V45.3657Z" fill="black"/>
<path d="M24.1948 45.3657H21.1704V48.3901H24.1948V45.3657Z" fill="black"/>
<path d="M36.2921 45.3657H33.2677V48.3901H36.2921V45.3657Z" fill="black"/>
<path d="M42.3407 45.3657H39.3163V48.3901H42.3407V45.3657Z" fill="black"/>
<path d="M45.365 45.3657H42.3406V48.3901H45.365V45.3657Z" fill="black"/>
<path d="M54.438 45.3657H51.4136V48.3901H54.438V45.3657Z" fill="black"/>
<path d="M57.4623 45.3657H54.4379V48.3901H57.4623V45.3657Z" fill="black"/>
<path d="M63.511 45.3657H60.4866V48.3901H63.511V45.3657Z" fill="black"/>
<path d="M66.5353 45.3657H63.5109V48.3901H66.5353V45.3657Z" fill="black"/>
<path d="M69.5595 45.3657H66.5352V48.3901H69.5595V45.3657Z" fill="black"/>
<path d="M78.6355 45.3657H75.6111V48.3901H78.6355V45.3657Z" fill="black"/>
<path d="M81.6599 45.3657H78.6355V48.3901H81.6599V45.3657Z" fill="black"/>
<path d="M90.7328 45.3657H87.7084V48.3901H90.7328V45.3657Z" fill="black"/>
<path d="M93.7571 45.3657H90.7327V48.3901H93.7571V45.3657Z" fill="black"/>
<path d="M96.7815 45.3657H93.7571V48.3901H96.7815V45.3657Z" fill="black"/>
<path d="M99.8058 45.3657H96.7814V48.3901H99.8058V45.3657Z" fill="black"/>
<path d="M102.83 45.3657H99.8057V48.3901H102.83V45.3657Z" fill="black"/>
<path d="M108.879 45.3657H105.854V48.3901H108.879V45.3657Z" fill="black"/>
<path d="M114.927 45.3657H111.903V48.3901H114.927V45.3657Z" fill="black"/>
<path d="M117.952 45.3657H114.927V48.3901H117.952V45.3657Z" fill="black"/>
<path d="M9.07322 48.3903H6.04883V51.4146H9.07322V48.3903Z" fill="black"/>
<path d="M15.122 48.3903H12.0977V51.4146H15.122V48.3903Z" fill="black"/>
<path d="M18.1462 48.39H15.1218V51.4144H18.1462V48.39Z" fill="black"/>
<path d="M21.1705 48.39H18.1461V51.4144H21.1705V48.39Z" fill="black"/>
<path d="M24.1948 48.39H21.1704V51.4144H24.1948V48.39Z" fill="black"/>
<path d="M27.2191 48.39H24.1947V51.4144H27.2191V48.39Z" fill="black"/>
<path d="M36.2921 48.39H33.2677V51.4144H36.2921V48.39Z" fill="black"/>
<path d="M39.3164 48.39H36.292V51.4144H39.3164V48.39Z" fill="black"/>
<path d="M42.3407 48.39H39.3163V51.4144H42.3407V48.39Z" fill="black"/>
<path d="M45.365 48.39H42.3406V51.4144H45.365V48.39Z" fill="black"/>
<path d="M51.4137 48.39H48.3893V51.4144H51.4137V48.39Z" fill="black"/>
<path d="M54.438 48.39H51.4136V51.4144H54.438V48.39Z" fill="black"/>
<path d="M57.4623 48.39H54.4379V51.4144H57.4623V48.39Z" fill="black"/>
<path d="M60.4865 48.39H57.4622V51.4144H60.4865V48.39Z" fill="black"/>
<path d="M63.511 48.39H60.4866V51.4144H63.511V48.39Z" fill="black"/>
<path d="M66.5353 48.39H63.5109V51.4144H66.5353V48.39Z" fill="black"/>
<path d="M75.6112 48.39H72.5868V51.4144H75.6112V48.39Z" fill="black"/>
<path d="M78.6355 48.39H75.6111V51.4144H78.6355V48.39Z" fill="black"/>
<path d="M84.6842 48.39H81.6598V51.4144H84.6842V48.39Z" fill="black"/>
<path d="M90.7328 48.39H87.7084V51.4144H90.7328V48.39Z" fill="black"/>
<path d="M108.879 48.39H105.854V51.4144H108.879V48.39Z" fill="black"/>
<path d="M111.903 48.39H108.879V51.4144H111.903V48.39Z" fill="black"/>
<path d="M117.952 48.39H114.927V51.4144H117.952V48.39Z" fill="black"/>
<path d="M9.07322 51.4147H6.04883V54.4391H9.07322V51.4147Z" fill="black"/>
<path d="M12.0976 51.4147H9.07324V54.4391H12.0976V51.4147Z" fill="black"/>
<path d="M15.122 51.4147H12.0977V54.4391H15.122V51.4147Z" fill="black"/>
<path d="M18.1462 51.4147H15.1218V54.4391H18.1462V51.4147Z" fill="black"/>
<path d="M21.1705 51.4147H18.1461V54.4391H21.1705V51.4147Z" fill="black"/>
<path d="M24.1948 51.4147H21.1704V54.4391H24.1948V51.4147Z" fill="black"/>
<path d="M30.2434 51.4147H27.219V54.4391H30.2434V51.4147Z" fill="black"/>
<path d="M36.2921 51.4147H33.2677V54.4391H36.2921V51.4147Z" fill="black"/>
<path d="M42.3407 51.4147H39.3163V54.4391H42.3407V51.4147Z" fill="black"/>
<path d="M57.4623 51.4147H54.4379V54.4391H57.4623V51.4147Z" fill="black"/>
<path d="M63.511 51.4147H60.4866V54.4391H63.511V51.4147Z" fill="black"/>
<path d="M78.6355 51.4147H75.6111V54.4391H78.6355V51.4147Z" fill="black"/>
<path d="M81.6599 51.4147H78.6355V54.4391H81.6599V51.4147Z" fill="black"/>
<path d="M96.7815 51.4147H93.7571V54.4391H96.7815V51.4147Z" fill="black"/>
<path d="M102.83 51.4147H99.8057V54.4391H102.83V51.4147Z" fill="black"/>
<path d="M105.854 51.4147H102.83V54.4391H105.854V51.4147Z" fill="black"/>
<path d="M108.879 51.4147H105.854V54.4391H108.879V51.4147Z" fill="black"/>
<path d="M9.07322 54.4391H6.04883V57.4635H9.07322V54.4391Z" fill="black"/>
<path d="M12.0976 54.4391H9.07324V57.4635H12.0976V54.4391Z" fill="black"/>
<path d="M27.2191 54.4391H24.1947V57.4635H27.2191V54.4391Z" fill="black"/>
<path d="M33.2678 54.4391H30.2434V57.4635H33.2678V54.4391Z" fill="black"/>
<path d="M36.2921 54.4391H33.2677V57.4635H36.2921V54.4391Z" fill="black"/>
<path d="M45.365 54.4391H42.3406V57.4635H45.365V54.4391Z" fill="black"/>
<path d="M48.3894 54.4391H45.365V57.4635H48.3894V54.4391Z" fill="black"/>
<path d="M57.4623 54.4391H54.4379V57.4635H57.4623V54.4391Z" fill="black"/>
<path d="M60.4865 54.4391H57.4622V57.4635H60.4865V54.4391Z" fill="black"/>
<path d="M63.511 54.4391H60.4866V57.4635H63.511V54.4391Z" fill="black"/>
<path d="M66.5353 54.4391H63.5109V57.4635H66.5353V54.4391Z" fill="black"/>
<path d="M75.6112 54.4391H72.5868V57.4635H75.6112V54.4391Z" fill="black"/>
<path d="M87.7085 54.4391H84.6841V57.4635H87.7085V54.4391Z" fill="black"/>
<path d="M90.7328 54.4391H87.7084V57.4635H90.7328V54.4391Z" fill="black"/>
<path d="M99.8058 54.4391H96.7814V57.4635H99.8058V54.4391Z" fill="black"/>
<path d="M102.83 54.4391H99.8057V57.4635H102.83V54.4391Z" fill="black"/>
<path d="M114.927 54.4391H111.903V57.4635H114.927V54.4391Z" fill="black"/>
<path d="M18.1462 57.4634H15.1218V60.4878H18.1462V57.4634Z" fill="black"/>
<path d="M21.1705 57.4634H18.1461V60.4878H21.1705V57.4634Z" fill="black"/>
<path d="M33.2678 57.4634H30.2434V60.4878H33.2678V57.4634Z" fill="black"/>
<path d="M39.3164 57.4634H36.292V60.4878H39.3164V57.4634Z" fill="black"/>
<path d="M42.3407 57.4634H39.3163V60.4878H42.3407V57.4634Z" fill="black"/>
<path d="M45.365 57.4634H42.3406V60.4878H45.365V57.4634Z" fill="black"/>
<path d="M48.3894 57.4634H45.365V60.4878H48.3894V57.4634Z" fill="black"/>
<path d="M57.4623 57.4634H54.4379V60.4878H57.4623V57.4634Z" fill="black"/>
<path d="M63.511 57.4634H60.4866V60.4878H63.511V57.4634Z" fill="black"/>
<path d="M75.6112 57.4634H72.5868V60.4878H75.6112V57.4634Z" fill="black"/>
<path d="M78.6355 57.4634H75.6111V60.4878H78.6355V57.4634Z" fill="black"/>
<path d="M87.7085 57.4634H84.6841V60.4878H87.7085V57.4634Z" fill="black"/>
<path d="M90.7328 57.4634H87.7084V60.4878H90.7328V57.4634Z" fill="black"/>
<path d="M93.7571 57.4634H90.7327V60.4878H93.7571V57.4634Z" fill="black"/>
<path d="M99.8058 57.4634H96.7814V60.4878H99.8058V57.4634Z" fill="black"/>
<path d="M102.83 57.4634H99.8057V60.4878H102.83V57.4634Z" fill="black"/>
<path d="M108.879 57.4634H105.854V60.4878H108.879V57.4634Z" fill="black"/>
<path d="M111.903 57.4634H108.879V60.4878H111.903V57.4634Z" fill="black"/>
<path d="M114.927 57.4634H111.903V60.4878H114.927V57.4634Z" fill="black"/>
<path d="M117.952 57.4634H114.927V60.4878H117.952V57.4634Z" fill="black"/>
<path d="M9.07322 60.4878H6.04883V63.5122H9.07322V60.4878Z" fill="black"/>
<path d="M12.0976 60.4878H9.07324V63.5122H12.0976V60.4878Z" fill="black"/>
<path d="M21.1705 60.488H18.1461V63.5124H21.1705V60.488Z" fill="black"/>
<path d="M27.2191 60.488H24.1947V63.5124H27.2191V60.488Z" fill="black"/>
<path d="M33.2678 60.488H30.2434V63.5124H33.2678V60.488Z" fill="black"/>
<path d="M39.3164 60.488H36.292V63.5124H39.3164V60.488Z" fill="black"/>
<path d="M45.365 60.488H42.3406V63.5124H45.365V60.488Z" fill="black"/>
<path d="M48.3894 60.488H45.365V63.5124H48.3894V60.488Z" fill="black"/>
<path d="M57.4623 60.488H54.4379V63.5124H57.4623V60.488Z" fill="black"/>
<path d="M60.4865 60.488H57.4622V63.5124H60.4865V60.488Z" fill="black"/>
<path d="M66.5353 60.488H63.5109V63.5124H66.5353V60.488Z" fill="black"/>
<path d="M72.5869 60.488H69.5625V63.5124H72.5869V60.488Z" fill="black"/>
<path d="M75.6112 60.488H72.5868V63.5124H75.6112V60.488Z" fill="black"/>
<path d="M78.6355 60.488H75.6111V63.5124H78.6355V60.488Z" fill="black"/>
<path d="M81.6599 60.488H78.6355V63.5124H81.6599V60.488Z" fill="black"/>
<path d="M84.6842 60.488H81.6598V63.5124H84.6842V60.488Z" fill="black"/>
<path d="M90.7328 60.488H87.7084V63.5124H90.7328V60.488Z" fill="black"/>
<path d="M93.7571 60.488H90.7327V63.5124H93.7571V60.488Z" fill="black"/>
<path d="M96.7815 60.488H93.7571V63.5124H96.7815V60.488Z" fill="black"/>
<path d="M99.8058 60.488H96.7814V63.5124H99.8058V60.488Z" fill="black"/>
<path d="M105.854 60.488H102.83V63.5124H105.854V60.488Z" fill="black"/>
<path d="M111.903 60.488H108.879V63.5124H111.903V60.488Z" fill="black"/>
<path d="M117.952 60.488H114.927V63.5124H117.952V60.488Z" fill="black"/>
<path d="M24.1948 63.5122H21.1704V66.5366H24.1948V63.5122Z" fill="black"/>
<path d="M33.2678 63.5122H30.2434V66.5366H33.2678V63.5122Z" fill="black"/>
<path d="M45.365 63.5122H42.3406V66.5366H45.365V63.5122Z" fill="black"/>
<path d="M48.3894 63.5122H45.365V66.5366H48.3894V63.5122Z" fill="black"/>
<path d="M51.4137 63.5122H48.3893V66.5366H51.4137V63.5122Z" fill="black"/>
<path d="M54.438 63.5122H51.4136V66.5366H54.438V63.5122Z" fill="black"/>
<path d="M57.4623 63.5122H54.4379V66.5366H57.4623V63.5122Z" fill="black"/>
<path d="M63.511 63.5122H60.4866V66.5366H63.511V63.5122Z" fill="black"/>
<path d="M75.6112 63.5122H72.5868V66.5366H75.6112V63.5122Z" fill="black"/>
<path d="M87.7085 63.5122H84.6841V66.5366H87.7085V63.5122Z" fill="black"/>
<path d="M93.7571 63.5122H90.7327V66.5366H93.7571V63.5122Z" fill="black"/>
<path d="M102.83 63.5122H99.8057V66.5366H102.83V63.5122Z" fill="black"/>
<path d="M108.879 63.5122H105.854V66.5366H108.879V63.5122Z" fill="black"/>
<path d="M12.0976 66.5366H9.07324V69.561H12.0976V66.5366Z" fill="black"/>
<path d="M18.1462 66.5366H15.1218V69.561H18.1462V66.5366Z" fill="black"/>
<path d="M21.1705 66.5366H18.1461V69.561H21.1705V66.5366Z" fill="black"/>
<path d="M27.2191 66.5366H24.1947V69.561H27.2191V66.5366Z" fill="black"/>
<path d="M33.2678 66.5366H30.2434V69.561H33.2678V66.5366Z" fill="black"/>
<path d="M42.3407 66.5366H39.3163V69.561H42.3407V66.5366Z" fill="black"/>
<path d="M51.4137 66.5366H48.3893V69.561H51.4137V66.5366Z" fill="black"/>
<path d="M57.4623 66.5366H54.4379V69.561H57.4623V66.5366Z" fill="black"/>
<path d="M66.5353 66.5366H63.5109V69.561H66.5353V66.5366Z" fill="black"/>
<path d="M69.5595 66.5366H66.5352V69.561H69.5595V66.5366Z" fill="black"/>
<path d="M81.6599 66.5366H78.6355V69.561H81.6599V66.5366Z" fill="black"/>
<path d="M87.7085 66.5366H84.6841V69.561H87.7085V66.5366Z" fill="black"/>
<path d="M93.7571 66.5366H90.7327V69.561H93.7571V66.5366Z" fill="black"/>
<path d="M99.8058 66.5366H96.7814V69.561H99.8058V66.5366Z" fill="black"/>
<path d="M102.83 66.5366H99.8057V69.561H102.83V66.5366Z" fill="black"/>
<path d="M108.879 66.5366H105.854V69.561H108.879V66.5366Z" fill="black"/>
<path d="M114.927 66.5366H111.903V69.561H114.927V66.5366Z" fill="black"/>
<path d="M12.0976 69.561H9.07324V72.5854H12.0976V69.561Z" fill="black"/>
<path d="M15.122 69.561H12.0977V72.5854H15.122V69.561Z" fill="black"/>
<path d="M18.1462 69.561H15.1218V72.5854H18.1462V69.561Z" fill="black"/>
<path d="M24.1948 69.561H21.1704V72.5854H24.1948V69.561Z" fill="black"/>
<path d="M30.2434 69.561H27.219V72.5854H30.2434V69.561Z" fill="black"/>
<path d="M36.2921 69.561H33.2677V72.5854H36.2921V69.561Z" fill="black"/>
<path d="M45.365 69.561H42.3406V72.5854H45.365V69.561Z" fill="black"/>
<path d="M54.438 69.561H51.4136V72.5854H54.438V69.561Z" fill="black"/>
<path d="M57.4623 69.561H54.4379V72.5854H57.4623V69.561Z" fill="black"/>
<path d="M60.4865 69.561H57.4622V72.5854H60.4865V69.561Z" fill="black"/>
<path d="M66.5353 69.561H63.5109V72.5854H66.5353V69.561Z" fill="black"/>
<path d="M69.5595 69.561H66.5352V72.5854H69.5595V69.561Z" fill="black"/>
<path d="M75.6112 69.561H72.5868V72.5854H75.6112V69.561Z" fill="black"/>
<path d="M78.6355 69.561H75.6111V72.5854H78.6355V69.561Z" fill="black"/>
<path d="M90.7328 69.561H87.7084V72.5854H90.7328V69.561Z" fill="black"/>
<path d="M93.7571 69.561H90.7327V72.5854H93.7571V69.561Z" fill="black"/>
<path d="M96.7815 69.561H93.7571V72.5854H96.7815V69.561Z" fill="black"/>
<path d="M99.8058 69.561H96.7814V72.5854H99.8058V69.561Z" fill="black"/>
<path d="M117.952 69.561H114.927V72.5854H117.952V69.561Z" fill="black"/>
<path d="M18.1462 72.5854H15.1218V75.6098H18.1462V72.5854Z" fill="black"/>
<path d="M27.2191 72.5854H24.1947V75.6098H27.2191V72.5854Z" fill="black"/>
<path d="M33.2678 72.5854H30.2434V75.6098H33.2678V72.5854Z" fill="black"/>
<path d="M36.2921 72.5854H33.2677V75.6098H36.2921V72.5854Z" fill="black"/>
<path d="M39.3164 72.5854H36.292V75.6098H39.3164V72.5854Z" fill="black"/>
<path d="M51.4137 72.5854H48.3893V75.6098H51.4137V72.5854Z" fill="black"/>
<path d="M54.438 72.5854H51.4136V75.6098H54.438V72.5854Z" fill="black"/>
<path d="M57.4623 72.5854H54.4379V75.6098H57.4623V72.5854Z" fill="black"/>
<path d="M66.5353 72.5854H63.5109V75.6098H66.5353V72.5854Z" fill="black"/>
<path d="M69.5595 72.5854H66.5352V75.6098H69.5595V72.5854Z" fill="black"/>
<path d="M78.6355 72.5854H75.6111V75.6098H78.6355V72.5854Z" fill="black"/>
<path d="M84.6842 72.5854H81.6598V75.6098H84.6842V72.5854Z" fill="black"/>
<path d="M87.7085 72.5854H84.6841V75.6098H87.7085V72.5854Z" fill="black"/>
<path d="M90.7328 72.5854H87.7084V75.6098H90.7328V72.5854Z" fill="black"/>
<path d="M93.7571 72.5854H90.7327V75.6098H93.7571V72.5854Z" fill="black"/>
<path d="M99.8058 72.5854H96.7814V75.6098H99.8058V72.5854Z" fill="black"/>
<path d="M108.879 72.5854H105.854V75.6098H108.879V72.5854Z" fill="black"/>
<path d="M111.903 72.5854H108.879V75.6098H111.903V72.5854Z" fill="black"/>
<path d="M117.952 72.5854H114.927V75.6098H117.952V72.5854Z" fill="black"/>
<path d="M9.07322 75.6099H6.04883V78.6343H9.07322V75.6099Z" fill="black"/>
<path d="M12.0976 75.6099H9.07324V78.6343H12.0976V75.6099Z" fill="black"/>
<path d="M15.122 75.6099H12.0977V78.6343H15.122V75.6099Z" fill="black"/>
<path d="M21.1705 75.6096H18.1461V78.634H21.1705V75.6096Z" fill="black"/>
<path d="M33.2678 75.6096H30.2434V78.634H33.2678V75.6096Z" fill="black"/>
<path d="M36.2921 75.6096H33.2677V78.634H36.2921V75.6096Z" fill="black"/>
<path d="M39.3164 75.6096H36.292V78.634H39.3164V75.6096Z" fill="black"/>
<path d="M54.438 75.6096H51.4136V78.634H54.438V75.6096Z" fill="black"/>
<path d="M57.4623 75.6096H54.4379V78.634H57.4623V75.6096Z" fill="black"/>
<path d="M60.4865 75.6096H57.4622V78.634H60.4865V75.6096Z" fill="black"/>
<path d="M66.5353 75.6096H63.5109V78.634H66.5353V75.6096Z" fill="black"/>
<path d="M81.6599 75.6096H78.6355V78.634H81.6599V75.6096Z" fill="black"/>
<path d="M87.7085 75.6096H84.6841V78.634H87.7085V75.6096Z" fill="black"/>
<path d="M90.7328 75.6096H87.7084V78.634H90.7328V75.6096Z" fill="black"/>
<path d="M93.7571 75.6096H90.7327V78.634H93.7571V75.6096Z" fill="black"/>
<path d="M102.83 75.6096H99.8057V78.634H102.83V75.6096Z" fill="black"/>
<path d="M105.854 75.6096H102.83V78.634H105.854V75.6096Z" fill="black"/>
<path d="M108.879 75.6096H105.854V78.634H108.879V75.6096Z" fill="black"/>
<path d="M114.927 75.6096H111.903V78.634H114.927V75.6096Z" fill="black"/>
<path d="M117.952 75.6096H114.927V78.634H117.952V75.6096Z" fill="black"/>
<path d="M9.07322 78.6342H6.04883V81.6585H9.07322V78.6342Z" fill="black"/>
<path d="M12.0976 78.6342H9.07324V81.6585H12.0976V78.6342Z" fill="black"/>
<path d="M15.122 78.6342H12.0977V81.6585H15.122V78.6342Z" fill="black"/>
<path d="M21.1705 78.6343H18.1461V81.6587H21.1705V78.6343Z" fill="black"/>
<path d="M27.2191 78.6343H24.1947V81.6587H27.2191V78.6343Z" fill="black"/>
<path d="M33.2678 78.6343H30.2434V81.6587H33.2678V78.6343Z" fill="black"/>
<path d="M39.3164 78.6343H36.292V81.6587H39.3164V78.6343Z" fill="black"/>
<path d="M51.4137 78.6343H48.3893V81.6587H51.4137V78.6343Z" fill="black"/>
<path d="M54.438 78.6343H51.4136V81.6587H54.438V78.6343Z" fill="black"/>
<path d="M60.4865 78.6343H57.4622V81.6587H60.4865V78.6343Z" fill="black"/>
<path d="M66.5353 78.6343H63.5109V81.6587H66.5353V78.6343Z" fill="black"/>
<path d="M69.5595 78.6343H66.5352V81.6587H69.5595V78.6343Z" fill="black"/>
<path d="M72.5869 78.6343H69.5625V81.6587H72.5869V78.6343Z" fill="black"/>
<path d="M75.6112 78.6343H72.5868V81.6587H75.6112V78.6343Z" fill="black"/>
<path d="M87.7085 78.6343H84.6841V81.6587H87.7085V78.6343Z" fill="black"/>
<path d="M93.7571 78.6343H90.7327V81.6587H93.7571V78.6343Z" fill="black"/>
<path d="M99.8058 78.6343H96.7814V81.6587H99.8058V78.6343Z" fill="black"/>
<path d="M102.83 78.6343H99.8057V81.6587H102.83V78.6343Z" fill="black"/>
<path d="M117.952 78.6343H114.927V81.6587H117.952V78.6343Z" fill="black"/>
<path d="M12.0976 81.6586H9.07324V84.683H12.0976V81.6586Z" fill="black"/>
<path d="M15.122 81.6586H12.0977V84.683H15.122V81.6586Z" fill="black"/>
<path d="M21.1705 81.6587H18.1461V84.6831H21.1705V81.6587Z" fill="black"/>
<path d="M30.2434 81.6587H27.219V84.6831H30.2434V81.6587Z" fill="black"/>
<path d="M33.2678 81.6587H30.2434V84.6831H33.2678V81.6587Z" fill="black"/>
<path d="M36.2921 81.6587H33.2677V84.6831H36.2921V81.6587Z" fill="black"/>
<path d="M39.3164 81.6587H36.292V84.6831H39.3164V81.6587Z" fill="black"/>
<path d="M45.365 81.6587H42.3406V84.6831H45.365V81.6587Z" fill="black"/>
<path d="M48.3894 81.6587H45.365V84.6831H48.3894V81.6587Z" fill="black"/>
<path d="M51.4137 81.6587H48.3893V84.6831H51.4137V81.6587Z" fill="black"/>
<path d="M60.4865 81.6587H57.4622V84.6831H60.4865V81.6587Z" fill="black"/>
<path d="M69.5595 81.6587H66.5352V84.6831H69.5595V81.6587Z" fill="black"/>
<path d="M78.6355 81.6587H75.6111V84.6831H78.6355V81.6587Z" fill="black"/>
<path d="M84.6842 81.6587H81.6598V84.6831H84.6842V81.6587Z" fill="black"/>
<path d="M87.7085 81.6587H84.6841V84.6831H87.7085V81.6587Z" fill="black"/>
<path d="M90.7328 81.6587H87.7084V84.6831H90.7328V81.6587Z" fill="black"/>
<path d="M93.7571 81.6587H90.7327V84.6831H93.7571V81.6587Z" fill="black"/>
<path d="M99.8058 81.6587H96.7814V84.6831H99.8058V81.6587Z" fill="black"/>
<path d="M102.83 81.6587H99.8057V84.6831H102.83V81.6587Z" fill="black"/>
<path d="M111.903 81.6587H108.879V84.6831H111.903V81.6587Z" fill="black"/>
<path d="M117.952 81.6587H114.927V84.6831H117.952V81.6587Z" fill="black"/>
<path d="M9.07322 84.683H6.04883V87.7074H9.07322V84.683Z" fill="black"/>
<path d="M12.0976 84.683H9.07324V87.7074H12.0976V84.683Z" fill="black"/>
<path d="M15.122 84.683H12.0977V87.7074H15.122V84.683Z" fill="black"/>
<path d="M27.2191 84.683H24.1947V87.7074H27.2191V84.683Z" fill="black"/>
<path d="M30.2434 84.683H27.219V87.7074H30.2434V84.683Z" fill="black"/>
<path d="M39.3164 84.683H36.292V87.7074H39.3164V84.683Z" fill="black"/>
<path d="M42.3407 84.683H39.3163V87.7074H42.3407V84.683Z" fill="black"/>
<path d="M45.365 84.683H42.3406V87.7074H45.365V84.683Z" fill="black"/>
<path d="M48.3894 84.683H45.365V87.7074H48.3894V84.683Z" fill="black"/>
<path d="M51.4137 84.683H48.3893V87.7074H51.4137V84.683Z" fill="black"/>
<path d="M54.438 84.683H51.4136V87.7074H54.438V84.683Z" fill="black"/>
<path d="M69.5595 84.683H66.5352V87.7074H69.5595V84.683Z" fill="black"/>
<path d="M72.5869 84.683H69.5625V87.7074H72.5869V84.683Z" fill="black"/>
<path d="M75.6112 84.683H72.5868V87.7074H75.6112V84.683Z" fill="black"/>
<path d="M78.6355 84.683H75.6111V87.7074H78.6355V84.683Z" fill="black"/>
<path d="M90.7328 84.683H87.7084V87.7074H90.7328V84.683Z" fill="black"/>
<path d="M96.7815 84.683H93.7571V87.7074H96.7815V84.683Z" fill="black"/>
<path d="M99.8058 84.683H96.7814V87.7074H99.8058V84.683Z" fill="black"/>
<path d="M102.83 84.683H99.8057V87.7074H102.83V84.683Z" fill="black"/>
<path d="M105.854 84.683H102.83V87.7074H105.854V84.683Z" fill="black"/>
<path d="M108.879 84.683H105.854V87.7074H108.879V84.683Z" fill="black"/>
<path d="M111.903 84.683H108.879V87.7074H111.903V84.683Z" fill="black"/>
<path d="M117.952 84.683H114.927V87.7074H117.952V84.683Z" fill="black"/>
<path d="M21.1705 87.7074H18.1461V90.7318H21.1705V87.7074Z" fill="black"/>
<path d="M42.3407 87.7074H39.3163V90.7318H42.3407V87.7074Z" fill="black"/>
<path d="M45.365 87.7074H42.3406V90.7318H45.365V87.7074Z" fill="black"/>
<path d="M48.3894 87.7074H45.365V90.7318H48.3894V87.7074Z" fill="black"/>
<path d="M66.5353 87.7074H63.5109V90.7318H66.5353V87.7074Z" fill="black"/>
<path d="M69.5595 87.7074H66.5352V90.7318H69.5595V87.7074Z" fill="black"/>
<path d="M78.6355 87.7074H75.6111V90.7318H78.6355V87.7074Z" fill="black"/>
<path d="M81.6599 87.7074H78.6355V90.7318H81.6599V87.7074Z" fill="black"/>
<path d="M102.83 87.7074H99.8057V90.7318H102.83V87.7074Z" fill="black"/>
<path d="M108.879 87.7074H105.854V90.7318H108.879V87.7074Z" fill="black"/>
<path d="M117.952 87.7074H114.927V90.7318H117.952V87.7074Z" fill="black"/>
<path d="M9.07322 90.7318H6.04883V93.7562H9.07322V90.7318Z" fill="black"/>
<path d="M12.0976 90.7318H9.07324V93.7562H12.0976V90.7318Z" fill="black"/>
<path d="M15.122 90.7318H12.0977V93.7562H15.122V90.7318Z" fill="black"/>
<path d="M21.1705 90.7319H18.1461V93.7563H21.1705V90.7319Z" fill="black"/>
<path d="M27.2191 90.7319H24.1947V93.7563H27.2191V90.7319Z" fill="black"/>
<path d="M39.3164 90.7319H36.292V93.7563H39.3164V90.7319Z" fill="black"/>
<path d="M54.438 90.7319H51.4136V93.7563H54.438V90.7319Z" fill="black"/>
<path d="M57.4623 90.7319H54.4379V93.7563H57.4623V90.7319Z" fill="black"/>
<path d="M78.6355 90.7319H75.6111V93.7563H78.6355V90.7319Z" fill="black"/>
<path d="M81.6599 90.7319H78.6355V93.7563H81.6599V90.7319Z" fill="black"/>
<path d="M90.7328 90.7319H87.7084V93.7563H90.7328V90.7319Z" fill="black"/>
<path d="M93.7571 90.7319H90.7327V93.7563H93.7571V90.7319Z" fill="black"/>
<path d="M96.7815 90.7319H93.7571V93.7563H96.7815V90.7319Z" fill="black"/>
<path d="M99.8058 90.7319H96.7814V93.7563H99.8058V90.7319Z" fill="black"/>
<path d="M102.83 90.7319H99.8057V93.7563H102.83V90.7319Z" fill="black"/>
<path d="M105.854 90.7319H102.83V93.7563H105.854V90.7319Z" fill="black"/>
<path d="M108.879 90.7319H105.854V93.7563H108.879V90.7319Z" fill="black"/>
<path d="M117.952 90.7319H114.927V93.7563H117.952V90.7319Z" fill="black"/>
<path d="M33.2678 93.7562H30.2434V96.7806H33.2678V93.7562Z" fill="black"/>
<path d="M39.3164 93.7562H36.292V96.7806H39.3164V93.7562Z" fill="black"/>
<path d="M42.3407 93.7562H39.3163V96.7806H42.3407V93.7562Z" fill="black"/>
<path d="M51.4137 93.7562H48.3893V96.7806H51.4137V93.7562Z" fill="black"/>
<path d="M54.438 93.7562H51.4136V96.7806H54.438V93.7562Z" fill="black"/>
<path d="M57.4623 93.7562H54.4379V96.7806H57.4623V93.7562Z" fill="black"/>
<path d="M66.5353 93.7562H63.5109V96.7806H66.5353V93.7562Z" fill="black"/>
<path d="M69.5595 93.7562H66.5352V96.7806H69.5595V93.7562Z" fill="black"/>
<path d="M72.5869 93.7562H69.5625V96.7806H72.5869V93.7562Z" fill="black"/>
<path d="M75.6112 93.7562H72.5868V96.7806H75.6112V93.7562Z" fill="black"/>
<path d="M78.6355 93.7562H75.6111V96.7806H78.6355V93.7562Z" fill="black"/>
<path d="M81.6599 93.7562H78.6355V96.7806H81.6599V93.7562Z" fill="black"/>
<path d="M93.7571 93.7562H90.7327V96.7806H93.7571V93.7562Z" fill="black"/>
<path d="M105.854 93.7562H102.83V96.7806H105.854V93.7562Z" fill="black"/>
<path d="M117.952 93.7562H114.927V96.7806H117.952V93.7562Z" fill="black"/>
<path d="M33.2678 96.7805H30.2434V99.8049H33.2678V96.7805Z" fill="black"/>
<path d="M39.3164 96.7805H36.292V99.8049H39.3164V96.7805Z" fill="black"/>
<path d="M45.365 96.7805H42.3406V99.8049H45.365V96.7805Z" fill="black"/>
<path d="M54.438 96.7805H51.4136V99.8049H54.438V96.7805Z" fill="black"/>
<path d="M60.4865 96.7805H57.4622V99.8049H60.4865V96.7805Z" fill="black"/>
<path d="M63.511 96.7805H60.4866V99.8049H63.511V96.7805Z" fill="black"/>
<path d="M66.5353 96.7805H63.5109V99.8049H66.5353V96.7805Z" fill="black"/>
<path d="M78.6355 96.7805H75.6111V99.8049H78.6355V96.7805Z" fill="black"/>
<path d="M93.7571 96.7805H90.7327V99.8049H93.7571V96.7805Z" fill="black"/>
<path d="M99.8058 96.7805H96.7814V99.8049H99.8058V96.7805Z" fill="black"/>
<path d="M105.854 96.7805H102.83V99.8049H105.854V96.7805Z" fill="black"/>
<path d="M117.952 96.7805H114.927V99.8049H117.952V96.7805Z" fill="black"/>
<path d="M39.3164 99.8049H36.292V102.829H39.3164V99.8049Z" fill="black"/>
<path d="M45.365 99.8049H42.3406V102.829H45.365V99.8049Z" fill="black"/>
<path d="M48.3894 99.8049H45.365V102.829H48.3894V99.8049Z" fill="black"/>
<path d="M57.4623 99.8049H54.4379V102.829H57.4623V99.8049Z" fill="black"/>
<path d="M63.511 99.8049H60.4866V102.829H63.511V99.8049Z" fill="black"/>
<path d="M66.5353 99.8049H63.5109V102.829H66.5353V99.8049Z" fill="black"/>
<path d="M69.5595 99.8049H66.5352V102.829H69.5595V99.8049Z" fill="black"/>
<path d="M72.5869 99.8049H69.5625V102.829H72.5869V99.8049Z" fill="black"/>
<path d="M78.6355 99.8049H75.6111V102.829H78.6355V99.8049Z" fill="black"/>
<path d="M81.6599 99.8049H78.6355V102.829H81.6599V99.8049Z" fill="black"/>
<path d="M93.7571 99.8049H90.7327V102.829H93.7571V99.8049Z" fill="black"/>
<path d="M105.854 99.8049H102.83V102.829H105.854V99.8049Z" fill="black"/>
<path d="M114.927 99.8049H111.903V102.829H114.927V99.8049Z" fill="black"/>
<path d="M36.2921 102.829H33.2677V105.854H36.2921V102.829Z" fill="black"/>
<path d="M42.3407 102.829H39.3163V105.854H42.3407V102.829Z" fill="black"/>
<path d="M57.4623 102.829H54.4379V105.854H57.4623V102.829Z" fill="black"/>
<path d="M60.4865 102.829H57.4622V105.854H60.4865V102.829Z" fill="black"/>
<path d="M63.511 102.829H60.4866V105.854H63.511V102.829Z" fill="black"/>
<path d="M72.5869 102.829H69.5625V105.854H72.5869V102.829Z" fill="black"/>
<path d="M87.7085 102.829H84.6841V105.854H87.7085V102.829Z" fill="black"/>
<path d="M90.7328 102.829H87.7084V105.854H90.7328V102.829Z" fill="black"/>
<path d="M93.7571 102.829H90.7327V105.854H93.7571V102.829Z" fill="black"/>
<path d="M96.7815 102.829H93.7571V105.854H96.7815V102.829Z" fill="black"/>
<path d="M99.8058 102.829H96.7814V105.854H99.8058V102.829Z" fill="black"/>
<path d="M102.83 102.829H99.8057V105.854H102.83V102.829Z" fill="black"/>
<path d="M105.854 102.829H102.83V105.854H105.854V102.829Z" fill="black"/>
<path d="M114.927 102.829H111.903V105.854H114.927V102.829Z" fill="black"/>
<path d="M36.2921 105.854H33.2677V108.878H36.2921V105.854Z" fill="black"/>
<path d="M42.3407 105.854H39.3163V108.878H42.3407V105.854Z" fill="black"/>
<path d="M48.3894 105.854H45.365V108.878H48.3894V105.854Z" fill="black"/>
<path d="M51.4137 105.854H48.3893V108.878H51.4137V105.854Z" fill="black"/>
<path d="M57.4623 105.854H54.4379V108.878H57.4623V105.854Z" fill="black"/>
<path d="M60.4865 105.854H57.4622V108.878H60.4865V105.854Z" fill="black"/>
<path d="M63.511 105.854H60.4866V108.878H63.511V105.854Z" fill="black"/>
<path d="M78.6355 105.854H75.6111V108.878H78.6355V105.854Z" fill="black"/>
<path d="M87.7085 105.854H84.6841V108.878H87.7085V105.854Z" fill="black"/>
<path d="M90.7328 105.854H87.7084V108.878H90.7328V105.854Z" fill="black"/>
<path d="M93.7571 105.854H90.7327V108.878H93.7571V105.854Z" fill="black"/>
<path d="M96.7815 105.854H93.7571V108.878H96.7815V105.854Z" fill="black"/>
<path d="M105.854 105.854H102.83V108.878H105.854V105.854Z" fill="black"/>
<path d="M108.879 105.854H105.854V108.878H108.879V105.854Z" fill="black"/>
<path d="M111.903 105.854H108.879V108.878H111.903V105.854Z" fill="black"/>
<path d="M33.2678 108.878H30.2434V111.902H33.2678V108.878Z" fill="black"/>
<path d="M39.3164 108.878H36.292V111.902H39.3164V108.878Z" fill="black"/>
<path d="M42.3407 108.878H39.3163V111.902H42.3407V108.878Z" fill="black"/>
<path d="M48.3894 108.878H45.365V111.902H48.3894V108.878Z" fill="black"/>
<path d="M51.4137 108.878H48.3893V111.902H51.4137V108.878Z" fill="black"/>
<path d="M57.4623 108.878H54.4379V111.902H57.4623V108.878Z" fill="black"/>
<path d="M63.511 108.878H60.4866V111.902H63.511V108.878Z" fill="black"/>
<path d="M66.5353 108.878H63.5109V111.902H66.5353V108.878Z" fill="black"/>
<path d="M72.5869 108.878H69.5625V111.902H72.5869V108.878Z" fill="black"/>
<path d="M75.6112 108.878H72.5868V111.902H75.6112V108.878Z" fill="black"/>
<path d="M78.6355 108.878H75.6111V111.902H78.6355V108.878Z" fill="black"/>
<path d="M81.6599 108.878H78.6355V111.902H81.6599V108.878Z" fill="black"/>
<path d="M87.7085 108.878H84.6841V111.902H87.7085V108.878Z" fill="black"/>
<path d="M90.7328 108.878H87.7084V111.902H90.7328V108.878Z" fill="black"/>
<path d="M93.7571 108.878H90.7327V111.902H93.7571V108.878Z" fill="black"/>
<path d="M102.83 108.878H99.8057V111.902H102.83V108.878Z" fill="black"/>
<path d="M105.854 108.878H102.83V111.902H105.854V108.878Z" fill="black"/>
<path d="M117.952 108.878H114.927V111.902H117.952V108.878Z" fill="black"/>
<path d="M45.365 111.902H42.3406V114.927H45.365V111.902Z" fill="black"/>
<path d="M48.3894 111.902H45.365V114.927H48.3894V111.902Z" fill="black"/>
<path d="M54.438 111.902H51.4136V114.927H54.438V111.902Z" fill="black"/>
<path d="M57.4623 111.902H54.4379V114.927H57.4623V111.902Z" fill="black"/>
<path d="M63.511 111.902H60.4866V114.927H63.511V111.902Z" fill="black"/>
<path d="M87.7085 111.902H84.6841V114.927H87.7085V111.902Z" fill="black"/>
<path d="M93.7571 111.902H90.7327V114.927H93.7571V111.902Z" fill="black"/>
<path d="M96.7815 111.902H93.7571V114.927H96.7815V111.902Z" fill="black"/>
<path d="M105.854 111.902H102.83V114.927H105.854V111.902Z" fill="black"/>
<path d="M108.879 111.902H105.854V114.927H108.879V111.902Z" fill="black"/>
<path d="M33.2678 114.927H30.2434V117.951H33.2678V114.927Z" fill="black"/>
<path d="M39.3164 114.927H36.292V117.951H39.3164V114.927Z" fill="black"/>
<path d="M48.3894 114.927H45.365V117.951H48.3894V114.927Z" fill="black"/>
<path d="M57.4623 114.927H54.4379V117.951H57.4623V114.927Z" fill="black"/>
<path d="M63.511 114.927H60.4866V117.951H63.511V114.927Z" fill="black"/>
<path d="M66.5353 114.927H63.5109V117.951H66.5353V114.927Z" fill="black"/>
<path d="M69.5595 114.927H66.5352V117.951H69.5595V114.927Z" fill="black"/>
<path d="M75.6112 114.927H72.5868V117.951H75.6112V114.927Z" fill="black"/>
<path d="M78.6355 114.927H75.6111V117.951H78.6355V114.927Z" fill="black"/>
<path d="M81.6599 114.927H78.6355V117.951H81.6599V114.927Z" fill="black"/>
<path d="M93.7571 114.927H90.7327V117.951H93.7571V114.927Z" fill="black"/>
<path d="M99.8058 114.927H96.7814V117.951H99.8058V114.927Z" fill="black"/>
<path d="M102.83 114.927H99.8057V117.951H102.83V114.927Z" fill="black"/>
<path d="M117.952 114.927H114.927V117.951H117.952V114.927Z" fill="black"/>
<path d="M24.044 6.04883H9.22444H6.04883V9.22444V24.044V27.2196H9.22444H24.044H27.2196V24.044V9.22444V6.04883H24.044ZM24.044 24.044H9.22444V9.22444H24.044V24.044Z" fill="black"/>
<path d="M114.776 6.04883H99.957H96.7814V9.22444V24.044V27.2196H99.957H114.776H117.952V24.044V9.22444V6.04883H114.776ZM114.776 24.044H99.957V9.22444H114.776V24.044Z" fill="black"/>
<path d="M24.044 96.7805H9.22444H6.04883V99.9561V114.776V117.951H9.22444H24.044H27.2196V114.776V99.9561V96.7805H24.044ZM24.044 114.776H9.22444V99.9561H24.044V114.776Z" fill="black"/>
<path d="M21.1708 12.0977H12.0977V21.1708H21.1708V12.0977Z" fill="black"/>
<path d="M111.903 12.0974H102.83V21.1706H111.903V12.0974Z" fill="black"/>
<path d="M21.1708 102.829H12.0977V111.903H21.1708V102.829Z" fill="black"/>
</g>
<defs>
<clipPath id="clip0_1_2921">
<rect width="124" height="124" rx="8" fill="white"/>
</clipPath>
</defs>
</svg>
