<svg width="16" height="16" viewBox="0 0 16 16" fill="none" xmlns="http://www.w3.org/2000/svg">
<path d="M8.0054 9.5875L13.2969 4.29364C13.3895 4.20058 13.4995 4.12673 13.6207 4.07634C13.7419 4.02594 13.8719 4 14.0031 4C14.1344 4 14.2643 4.02594 14.3855 4.07634C14.5067 4.12673 14.6168 4.20058 14.7093 4.29364C14.8956 4.48243 15 4.73697 15 5.00217C15 5.26737 14.8956 5.52191 14.7093 5.7107L8.71335 11.7113C8.53136 11.8929 8.28634 11.9973 8.02933 12.0027C7.77231 12.0081 7.52311 11.9142 7.33361 11.7405L1.29565 5.71537C1.10712 5.52792 1.00077 5.27325 1 5.00739C0.99924 4.74153 1.10412 4.48626 1.29157 4.29772C1.47902 4.10919 1.73368 4.00284 1.99954 4.00208C2.2654 4.00131 2.52068 4.10619 2.70921 4.29364L8.0054 9.5875Z" fill="black"/>
</svg>
