<svg width="40" height="40" viewBox="0 0 40 40" fill="none" xmlns="http://www.w3.org/2000/svg">
<rect width="40" height="40" rx="8" fill="#F7B28B"/>
<path d="M31.0625 15.1445H29.9653C29.9622 15.1436 29.9592 15.1422 29.9559 15.1413L12.328 10.1104C11.8304 9.9684 11.3112 10.2568 11.1692 10.7546L9.91634 15.1445H8.9375C8.41972 15.1445 8 15.5642 8 16.082V28.9883C8 29.5061 8.41972 29.9258 8.9375 29.9258H31.0625C31.5803 29.9258 32 29.5061 32 28.9883V16.082C32 15.5643 31.5803 15.1445 31.0625 15.1445ZM25.5794 28.0508H14.4206C14.0255 25.7334 12.1924 23.9002 9.875 23.5052V21.5651C12.1924 21.1701 14.0255 19.337 14.4206 17.0196H25.5794C25.9744 19.337 27.8075 21.1702 30.125 21.5651V23.5052C27.8076 23.9002 25.9744 25.7334 25.5794 28.0508ZM12.5038 17.0195C12.1668 18.3007 11.1562 19.3113 9.875 19.6484V17.0195H12.5038ZM30.125 19.6484C28.8438 19.3113 27.8332 18.3007 27.4961 17.0196H30.125V19.6484ZM12.7149 12.1707L23.135 15.1445H11.8662L12.7149 12.1707ZM9.875 25.4219C11.1562 25.759 12.1668 26.7696 12.5038 28.0508H9.875V25.4219ZM27.4961 28.0508C27.8332 26.7696 28.8438 25.759 30.125 25.4219V28.0508H27.4961ZM20 18.8399C17.9624 18.8399 16.3047 20.4976 16.3047 22.5352C16.3047 24.5728 17.9624 26.2305 20 26.2305C22.0376 26.2305 23.6953 24.5727 23.6953 22.5352C23.6953 20.4976 22.0376 18.8399 20 18.8399ZM20 24.3555C18.9963 24.3555 18.1797 23.5389 18.1797 22.5352C18.1797 21.5314 18.9963 20.7149 20 20.7149C21.0037 20.7149 21.8203 21.5314 21.8203 22.5352C21.8203 23.5389 21.0037 24.3555 20 24.3555Z" fill="black"/>
</svg>
