<svg width="40" height="40" viewBox="0 0 40 40" fill="none" xmlns="http://www.w3.org/2000/svg">
<rect width="40" height="40" rx="8" fill="#F7B28B"/>
<g clip-path="url(#clip0_1_2636)">
<path d="M29.1875 13.625H26.058C26.3781 13.073 26.5625 12.4328 26.5625 11.75C26.5625 9.68225 24.8802 8 22.8125 8C21.6933 8 20.6877 8.49345 20 9.27355C19.3123 8.49345 18.3067 8 17.1875 8C15.1198 8 13.4375 9.68225 13.4375 11.75C13.4375 12.4328 13.6218 13.073 13.942 13.625H10.8125C9.26169 13.625 8 14.8867 8 16.4375V20.9375H9.875V29.1875C9.875 30.7383 11.1367 32 12.6875 32H27.3125C28.8633 32 30.125 30.7383 30.125 29.1875V20.9375H32V16.4375C32 14.8867 30.7383 13.625 29.1875 13.625ZM19.0625 30.125H12.6875C12.1706 30.125 11.75 29.7044 11.75 29.1875V20.9375H19.0625V30.125ZM19.0625 19.0625H9.875V16.4375C9.875 15.9206 10.2956 15.5 10.8125 15.5H19.0625V19.0625ZM19.0625 13.625H17.1875C16.1536 13.625 15.3125 12.7839 15.3125 11.75C15.3125 10.7161 16.1536 9.875 17.1875 9.875C18.2214 9.875 19.0625 10.7161 19.0625 11.75V13.625ZM20.9375 11.75C20.9375 10.7161 21.7786 9.875 22.8125 9.875C23.8464 9.875 24.6875 10.7161 24.6875 11.75C24.6875 12.7839 23.8464 13.625 22.8125 13.625H20.9375V11.75ZM28.25 29.1875C28.25 29.7044 27.8294 30.125 27.3125 30.125H20.9375V20.9375H28.25V29.1875ZM30.125 19.0625H20.9375V15.5H29.1875C29.7044 15.5 30.125 15.9206 30.125 16.4375V19.0625Z" fill="black"/>
</g>
<defs>
<clipPath id="clip0_1_2636">
<rect width="24" height="24" fill="white" transform="translate(8 8)"/>
</clipPath>
</defs>
</svg>
