<svg width="125" height="32" viewBox="0 0 125 32" fill="none" xmlns="http://www.w3.org/2000/svg">
<g clip-path="url(#clip0_80_116)">
<g clip-path="url(#clip1_80_116)">
<g clip-path="url(#clip2_80_116)">
<path d="M15.9931 1.28613C15.7411 1.28621 15.4893 1.30134 15.2392 1.33145C14.6176 1.40756 14.01 1.57143 13.4345 1.81816C9.38135 3.53926 6.39697 9.24473 6.39697 16.0002C6.39697 22.7557 9.38135 28.4604 13.4337 30.1822C14.0092 30.4289 14.6168 30.5928 15.2384 30.6689C15.4886 30.699 15.7403 30.7142 15.9923 30.7143C21.2837 30.7143 25.5884 24.1135 25.5884 16.0002C25.5884 7.88691 21.2845 1.28613 15.9931 1.28613Z" fill="#F8CC5D"/>
<path d="M5.84062 10.2422H2.04531C1.58687 11.9113 1.33293 13.6298 1.28906 15.3602H5.12812C5.17015 13.6326 5.40919 11.9155 5.84062 10.2422Z" fill="#F8CC5D"/>
<path d="M8.00708 5.12402H4.41333C3.58263 6.30618 2.92005 7.59794 2.44458 8.96231H6.21333C6.65462 7.61536 7.25689 6.32661 8.00708 5.12402Z" fill="#F8CC5D"/>
<path d="M5.12812 16.6396H1.28906C1.33294 18.37 1.58688 20.0886 2.04531 21.7576H5.84062C5.40919 20.0843 5.17014 18.3672 5.12812 16.6396Z" fill="#F8CC5D"/>
<path d="M11.6288 1.33145C11.3786 1.30134 11.1269 1.28621 10.8749 1.28613C9.84664 1.31873 8.83611 1.56273 7.90627 2.00292C6.97642 2.44311 6.14718 3.07007 5.47021 3.84473H8.90772C9.66886 2.86193 10.589 2.01257 11.6288 1.33145Z" fill="#F8CC5D"/>
<path d="M6.2187 23.0371H2.44995C2.92543 24.4015 3.588 25.6932 4.4187 26.8754H8.01245C7.26343 25.6726 6.66221 24.3839 6.22183 23.0371" fill="#F8CC5D"/>
<path d="M8.90869 28.1553H5.47119C6.1478 28.9296 6.97654 29.5563 7.90582 29.9965C8.8351 30.4367 9.84503 30.6808 10.8728 30.7139C11.1247 30.7138 11.3765 30.6987 11.6267 30.6686C10.5877 29.9872 9.66918 29.1378 8.90869 28.1553Z" fill="#F8CC5D"/>
<path d="M15.993 0.00683594H10.8751C7.92039 0.00683594 5.16102 1.70527 3.10555 4.78887C1.00349 8.14491 -0.0756101 12.0405 7.76371e-05 15.9998C-0.0757625 19.9594 1.00334 23.8553 3.10555 27.2115C5.16102 30.2951 7.92039 31.9936 10.8759 31.9936H15.9938C18.9485 31.9936 21.7079 30.2951 23.7641 27.2115C25.8663 23.8553 26.9454 19.9594 26.8696 15.9998C26.9451 12.0404 25.8657 8.14482 23.7634 4.78887C21.7071 1.70527 18.9477 0.00683594 15.993 0.00683594ZM10.8751 1.28652C11.1271 1.2866 11.3788 1.30174 11.629 1.33184C10.5883 2.01277 9.66818 2.86213 8.90633 3.84512H5.46883C6.14597 3.07027 6.97546 2.4432 7.90559 2.003C8.83572 1.56281 9.84655 1.31891 10.8751 1.28652ZM4.41883 5.1248H8.01258C7.26246 6.32743 6.66019 7.61617 6.21883 8.96309H2.45008C2.92555 7.59872 3.58813 6.30697 4.41883 5.1248ZM2.04539 10.2412H5.8407C5.40927 11.9145 5.17022 13.6316 5.1282 15.3592H1.28914C1.33301 13.6289 1.58695 11.9103 2.04539 10.2412ZM1.28914 16.6396H5.1282C5.17022 18.3672 5.40927 20.0843 5.8407 21.7576H2.04539C1.58695 20.0886 1.33301 18.37 1.28914 16.6396ZM4.41883 26.874C3.58813 25.6919 2.92555 24.4001 2.45008 23.0357H6.21883C6.6592 24.3825 7.26042 25.6712 8.00945 26.874H4.41883ZM10.8751 30.71C9.84735 30.6769 8.83742 30.4327 7.90814 29.9926C6.97886 29.5524 6.15013 28.9256 5.47352 28.1514H8.91101C9.67217 29.1342 10.5915 29.9835 11.6313 30.6646C11.3812 30.6947 11.1294 30.7099 10.8774 30.71M15.9954 30.71C15.7434 30.7099 15.4917 30.6947 15.2415 30.6646C14.6199 30.5885 14.0123 30.4247 13.4368 30.1779C9.38367 28.4592 6.40008 22.7514 6.40008 15.9959C6.40008 9.24043 9.38133 3.53965 13.4376 1.81855C14.0131 1.57182 14.6207 1.40795 15.2423 1.33184C15.4924 1.30174 15.7442 1.2866 15.9962 1.28652C21.2876 1.28652 25.5923 7.8873 25.5923 16.0006C25.5923 24.1139 21.2845 30.71 15.993 30.71" fill="black"/>
<path d="M20.0391 11.459L16.4953 12.3832L17.0156 7.29728C17.0241 7.20991 17.0133 7.12174 16.984 7.039C16.9547 6.95625 16.9077 6.88093 16.8461 6.81837C16.7904 6.75903 16.7201 6.71538 16.6422 6.69179C16.5643 6.66821 16.4816 6.66552 16.4023 6.68399L12.2383 7.76993C12.1437 7.79875 12.0606 7.85673 12.001 7.93559C11.9414 8.01445 11.9082 8.11015 11.9062 8.209L11.3289 17.8817C11.3239 17.9672 11.3374 18.0529 11.3684 18.1328C11.3994 18.2128 11.4472 18.2851 11.5086 18.3449C11.5642 18.4015 11.6335 18.4428 11.7097 18.4649C11.7859 18.4869 11.8665 18.4889 11.9437 18.4707L16.0687 17.3949L16.464 24.7918C16.4679 24.9139 16.5114 25.0315 16.5879 25.1268C16.6644 25.222 16.7698 25.2898 16.8883 25.3199C16.9513 25.3329 17.0165 25.3313 17.0789 25.3152C17.1564 25.2925 17.2263 25.2493 17.2813 25.1902C17.3363 25.1311 17.3743 25.0582 17.3914 24.9793L20.6406 12.1512C20.6626 12.0593 20.6624 11.9635 20.6401 11.8717C20.6179 11.7799 20.5741 11.6947 20.5125 11.6231C20.4576 11.5546 20.3845 11.5029 20.3016 11.4738C20.2188 11.4448 20.1294 11.4397 20.0437 11.459" fill="black"/>
<path d="M48.2424 11.9225C48.1867 12.1829 48.1286 12.4342 48.0682 12.6764C48.0077 12.9186 47.9494 13.149 47.8932 13.3678C47.8402 13.5659 47.8121 13.7698 47.8096 13.9748C47.8096 14.068 47.721 14.1798 47.544 14.31C47.3493 14.4518 47.1437 14.578 46.9291 14.6873C46.6963 14.8087 46.4682 14.9183 46.2447 15.0162C46.0898 15.0872 45.9312 15.1501 45.7697 15.2045C45.4812 15.2795 45.1947 15.3519 44.9104 15.4217C44.626 15.4915 44.3395 15.568 44.051 15.6514C44.3395 15.8285 44.6213 16.0032 44.8963 16.1756C45.1713 16.348 45.4531 16.5178 45.7416 16.685L46.1119 16.9022C46.2468 16.9813 46.3794 17.0652 46.5096 17.1537C46.6361 17.2386 46.7511 17.3394 46.8518 17.4537C46.9476 17.5621 47.0169 17.6913 47.0541 17.8311C47.1786 18.2516 47.2536 18.6853 47.2775 19.1232C47.3057 19.5842 47.3197 20.0287 47.3197 20.4568C47.3201 20.8908 47.3461 21.3244 47.3979 21.7553C47.4499 22.1839 47.4989 22.6214 47.5447 23.0678C47.5911 23.4219 47.6307 23.7782 47.6635 24.1365C47.6963 24.4949 47.7359 24.8508 47.7822 25.2045C47.3166 25.13 46.8674 25.0696 46.4346 25.0232C45.9869 24.976 45.5371 24.9528 45.0869 24.9537C44.8447 24.9537 44.6104 24.949 44.3838 24.9396C44.1572 24.9303 43.9268 24.9162 43.6924 24.8975C43.8226 24.4318 43.932 23.9662 44.0205 23.5006C44.109 23.0355 44.1535 22.5631 44.1533 22.0896C44.1533 21.6339 44.1486 21.1777 44.1393 20.7209C44.1299 20.2641 44.1252 19.8079 44.1252 19.3521C44.1166 19.0994 44.0596 18.8506 43.9572 18.6193C43.8682 18.3833 43.7407 18.1637 43.5799 17.9693C43.4544 17.8947 43.3136 17.8495 43.1682 17.8373C42.9401 17.7951 42.6911 17.7579 42.4213 17.7256C42.1515 17.6933 41.8979 17.6673 41.6604 17.6475C41.4229 17.6287 41.2716 17.6146 41.2065 17.6053C41.2252 18.3969 41.2578 19.1837 41.3041 19.9654C41.3505 20.7472 41.3736 21.5339 41.3736 22.3256C41.373 22.5349 41.3895 22.7439 41.4229 22.9506C41.4551 23.1506 41.4947 23.3529 41.5416 23.5576C41.113 23.4831 40.6939 23.4204 40.2846 23.3693C39.8585 23.3167 39.4295 23.2906 39.0002 23.2912H38.3088C38.0807 23.2912 37.8549 23.2826 37.6315 23.2631C37.7593 22.8201 37.8482 22.3668 37.8971 21.9084C37.9434 21.4615 37.9736 21.0146 37.9877 20.5678C38.0018 20.1209 38.0088 19.674 38.0088 19.2271C38.0088 18.7803 38.0226 18.324 38.0502 17.8584C38.0966 17.1324 38.1226 16.4032 38.1283 15.6709C38.1341 14.9386 38.1364 14.2094 38.1354 13.4834C38.1354 12.7485 38.1028 12.0222 38.0377 11.3045C37.9726 10.5868 37.94 9.86048 37.94 9.12558C37.9396 8.82108 37.9116 8.51724 37.8564 8.21777C37.8027 7.93231 37.7748 7.64261 37.7729 7.35215C37.7632 7.2431 37.7324 7.13697 37.6822 7.03965C37.6218 6.90475 37.5731 6.80058 37.5361 6.72715C37.8059 6.7084 38.0783 6.69434 38.3533 6.68496C38.6275 6.67637 38.9002 6.6709 39.1705 6.6709C39.689 6.67096 40.2068 6.70619 40.7205 6.77637C41.2295 6.84597 41.7427 6.88095 42.2565 6.88106C42.5527 6.88126 42.8487 6.86509 43.1432 6.83262C43.4376 6.7998 43.7336 6.78337 44.0299 6.7834C44.2394 6.79042 44.4482 6.81156 44.6549 6.84668C44.9341 6.88887 45.2205 6.94694 45.5143 7.0209C45.7882 7.08931 46.0567 7.17809 46.3174 7.28652C46.5029 7.34607 46.6645 7.46354 46.7783 7.62168C46.9688 7.95405 47.1935 8.26563 47.4486 8.55137C47.7058 8.83913 47.9221 9.1609 48.0916 9.50762C48.1531 9.61601 48.1957 9.73411 48.2174 9.85684C48.2455 9.99668 48.2682 10.1436 48.2869 10.2975C48.3057 10.4514 48.3174 10.5998 48.3221 10.7443C48.3268 10.8889 48.3291 11.0115 48.3291 11.1139C48.33 11.3861 48.302 11.6577 48.2455 11.924M44.5658 11.1076C44.5212 10.9067 44.4654 10.7085 44.3986 10.5139C44.3338 10.3219 44.2592 10.1334 44.1752 9.94902C44.1287 9.82097 44.0492 9.7075 43.9447 9.62012C43.8532 9.56991 43.7487 9.54815 43.6447 9.55762C43.5189 9.5623 43.419 9.56387 43.3447 9.56387C43.1494 9.56387 42.9468 9.57324 42.7369 9.59199C42.5275 9.61074 42.3205 9.62012 42.1119 9.62012C41.9442 9.62012 41.7788 9.61543 41.6158 9.60605C41.4528 9.59668 41.2827 9.58262 41.1057 9.56387C41.1052 9.92407 41.0773 10.2837 41.0221 10.6397C40.9668 10.9953 40.9388 11.3547 40.9385 11.7146C40.9387 12.2046 40.9666 12.6942 41.0221 13.1811C41.0778 13.6753 41.1299 14.1594 41.1783 14.6334C41.3382 14.5392 41.5039 14.4552 41.6744 14.3818C41.9025 14.2777 42.1447 14.18 42.401 14.0889C42.6572 13.9977 42.9041 13.9165 43.1416 13.8451C43.3109 13.7879 43.4868 13.7524 43.665 13.7396C43.7697 13.7449 43.8741 13.7247 43.9693 13.6809C44.0645 13.6371 44.1478 13.571 44.2119 13.4881C44.3482 13.3077 44.4456 13.101 44.4979 12.8811C44.5588 12.6407 44.5962 12.395 44.6096 12.1475C44.6236 11.8959 44.6307 11.692 44.6307 11.5326C44.6235 11.389 44.6023 11.2464 44.5674 11.1068" fill="black"/>
<path d="M57.8578 24.3873C57.4331 24.3447 57.0065 24.3236 56.5797 24.324C56.1797 24.324 55.7818 24.3357 55.3859 24.3592C54.9901 24.3826 54.5875 24.4175 54.1781 24.4639C54.1234 23.9628 54.0955 23.4593 54.0945 22.9553C54.0945 22.7511 54.1016 22.5534 54.1156 22.3623C54.1303 22.167 54.1606 21.9731 54.2062 21.7826C53.7312 21.8295 53.2656 21.8738 52.8094 21.9154C52.3481 21.958 51.8906 22.0348 51.4406 22.1451C51.3608 22.3121 51.2932 22.4847 51.2383 22.6615C51.1878 22.826 51.1504 22.9942 51.1266 23.1647C51.1031 23.3338 51.089 23.5041 51.0844 23.6748C51.0797 23.8472 51.0726 24.0264 51.0633 24.2123C50.393 24.268 49.7226 24.31 49.0523 24.3381C48.382 24.3662 47.707 24.4081 47.0273 24.4639C47.2971 23.7868 47.581 23.1141 47.8789 22.4459C48.1768 21.7777 48.4677 21.1094 48.7516 20.4412C49.0354 19.7709 49.3055 19.0938 49.5617 18.41C49.8186 17.7223 50.0354 17.0204 50.2109 16.3076C50.3957 15.5772 50.6195 14.8571 50.8812 14.1506C51.1417 13.448 51.4188 12.7519 51.7125 12.0623C52.0063 11.3727 52.3065 10.6863 52.6133 10.0029C52.9206 9.31855 53.2138 8.62715 53.493 7.92871C54.0138 9.31621 54.4956 10.7014 54.9383 12.0842C55.381 13.467 55.7651 14.8751 56.0906 16.3084C56.2201 16.8368 56.3811 17.357 56.5726 17.8662C56.7633 18.3735 56.9565 18.8878 57.1523 19.4092C57.4784 20.2566 57.8112 21.1016 58.1508 21.9443C58.4904 22.787 58.8094 23.6464 59.1078 24.5225C58.6911 24.4761 58.2745 24.4321 57.8578 24.3904M53.2703 14.8857L52.2367 19.2607L53.843 19.0654L53.2703 14.8857Z" fill="black"/>
<path d="M69.5338 10.8258C69.5011 11.1482 69.4847 11.472 69.4846 11.7961C69.4845 12.0553 69.4985 12.3142 69.5267 12.5719C69.5543 12.8246 69.5682 13.0786 69.5682 13.3328H69.0791C68.6174 13.3521 68.1549 13.3333 67.6963 13.2766C67.2375 13.2201 66.7757 13.1922 66.3135 13.193C66.1338 13.193 65.9542 13.1815 65.776 13.1586C65.5947 13.1352 65.4197 13.1094 65.2518 13.0805C65.3127 13.3946 65.357 13.7117 65.3846 14.0305C65.4169 14.3846 65.44 14.7479 65.4541 15.1203C65.4682 15.4927 65.4752 15.863 65.4752 16.2312V17.2297C65.4742 17.6932 65.5139 18.1559 65.5939 18.6125C65.6735 19.0644 65.7132 19.5224 65.7127 19.9813C65.7127 20.1958 65.708 20.4078 65.6986 20.6172C65.6893 20.8266 65.6846 21.0336 65.6846 21.2383C65.6841 21.8957 65.7377 22.5521 65.8447 23.2008C65.9501 23.8404 66.097 24.4725 66.2846 25.093C66.0148 25.093 65.7447 25.0883 65.4744 25.0789C65.2041 25.0695 64.9395 25.0643 64.6807 25.0633C64.0788 25.063 63.4774 25.0956 62.8791 25.1609C62.2833 25.226 61.6921 25.2818 61.1057 25.3281L61.0776 24.8672C61.0681 24.4823 61.0893 24.0972 61.1408 23.7156C61.1929 23.3385 61.2533 22.9615 61.3221 22.5844C61.3908 22.2073 61.4583 21.8302 61.5244 21.4531C61.5897 21.0764 61.6317 20.696 61.6502 20.3141C61.6966 19.7194 61.7084 19.1226 61.6854 18.5266C61.6619 17.9401 61.6502 17.3536 61.6502 16.7672C61.6502 16.4693 61.6643 16.176 61.6924 15.8875C61.7205 15.599 61.7554 15.3151 61.7971 15.0359C61.8387 14.7568 61.8807 14.4729 61.9228 14.1844C61.965 13.8958 61.9953 13.6026 62.0135 13.3047H61.8736C61.5021 13.2765 61.1285 13.2999 60.7635 13.3742C60.3958 13.4492 60.0351 13.5237 59.6814 13.5977C59.5338 13.6882 59.3702 13.7497 59.1994 13.7789C58.9619 13.8346 58.7083 13.8836 58.4385 13.9258C58.1687 13.968 57.9083 14.0026 57.6572 14.0297C57.4057 14.0578 57.2197 14.0766 57.0986 14.0859C57.1731 13.788 57.2453 13.4878 57.315 13.1852C57.3851 12.8805 57.4202 12.5689 57.4197 12.2562C57.4197 11.7068 57.401 11.1576 57.3635 10.6086C57.326 10.0596 57.3075 9.51042 57.308 8.96094C57.7085 9.09167 58.1067 9.22188 58.5025 9.35156C58.8984 9.48125 59.2986 9.6 59.7033 9.70781C60.1085 9.81458 60.5158 9.90313 60.9252 9.97344C61.3358 10.0433 61.7516 10.0784 62.1682 10.0781H68.6346C68.8046 10.0732 68.9734 10.047 69.1369 10C69.3322 9.94792 69.4953 9.89896 69.626 9.85312C69.5979 10.1797 69.5676 10.5034 69.5354 10.8242" fill="black"/>
<path d="M79.15 12.3346C78.8708 12.3023 78.5984 12.2697 78.3328 12.2369C78.0672 12.2041 77.7971 12.1781 77.5226 12.1588C77.2482 12.14 76.9432 12.1307 76.6078 12.1307C76.1715 12.1304 75.7355 12.1565 75.3023 12.2088C74.8736 12.2607 74.4421 12.2868 74.0101 12.2869C73.8533 12.2873 73.6966 12.2758 73.5414 12.2525C73.3852 12.2291 73.2289 12.2031 73.0727 12.1744C73.1455 12.5877 73.1922 13.0052 73.2125 13.4244C73.2312 13.8296 73.2406 14.2507 73.2406 14.6877C73.2406 14.8554 73.2453 15.0301 73.2547 15.2119C73.2641 15.3937 73.2781 15.5729 73.2969 15.7494C73.8552 15.6656 74.3813 15.6005 74.875 15.5541C75.3688 15.5077 75.8552 15.4637 76.3344 15.4221C76.8141 15.3799 77.3005 15.3333 77.7938 15.2822C78.287 15.2312 78.8078 15.1635 79.3563 15.0791L79.4961 18.1791C79.2633 18.1702 79.0492 18.1635 78.8539 18.1588C78.6586 18.1541 78.4677 18.1424 78.2812 18.1236C78.0953 18.1049 77.9068 18.077 77.7156 18.04C77.525 18.0033 77.3086 17.9518 77.0664 17.8838C76.812 17.8137 76.5531 17.7615 76.2914 17.7275C76.0076 17.6911 75.719 17.6632 75.4258 17.6439C75.1325 17.6247 74.8422 17.6127 74.5547 17.608C74.2664 17.5994 74.0008 17.5893 73.7586 17.5799L73.6024 21.2666H74.6914C75.1477 21.2666 75.5714 21.2528 75.9625 21.2252C76.3537 21.1976 76.7401 21.1674 77.1219 21.1346C77.5036 21.1023 77.8901 21.0718 78.2812 21.0432C78.6724 21.0145 79.0961 21.0005 79.5524 21.001L79.65 24.1572C79.3521 24.1385 79.0797 24.1223 78.8328 24.1088C78.5859 24.0953 78.3461 24.0835 78.1133 24.0736L77.3945 24.0455C77.1476 24.0369 76.8758 24.0314 76.5773 24.0314C76.2237 24.0314 75.849 24.034 75.4531 24.0393C75.0754 24.0418 74.6989 24.0813 74.3289 24.1572C73.8057 24.2715 73.2722 24.3322 72.7367 24.3385C72.1779 24.3479 71.6471 24.3525 71.1445 24.3525C70.856 24.3525 70.5766 24.3479 70.3062 24.3385C70.0359 24.3299 69.7664 24.3244 69.4961 24.3244C69.5612 24.1567 69.6497 23.9265 69.7617 23.6338C69.8737 23.3411 69.9854 23.0314 70.0969 22.7049C70.2089 22.3788 70.3065 22.0622 70.3899 21.7549C70.462 21.5189 70.5043 21.2748 70.5156 21.0283C70.5156 20.3773 70.4969 19.7281 70.4594 19.0807C70.4219 18.4333 70.3799 17.7861 70.3336 17.1393C70.2872 16.4919 70.2453 15.8447 70.2078 15.1979C70.1703 14.551 70.1516 13.9012 70.1516 13.2486C70.1516 12.6434 70.1562 12.0408 70.1656 11.4408C70.175 10.8408 70.1891 10.2333 70.2078 9.61816C70.449 9.71243 70.6962 9.79072 70.9477 9.85254C71.1992 9.91304 71.457 9.94346 71.7156 9.94316H71.925C72.5396 9.839 73.1516 9.74577 73.7609 9.66348C74.3649 9.58002 74.9739 9.53799 75.5836 9.53769C75.9654 9.53769 76.3377 9.52155 76.7008 9.48926C77.0638 9.45696 77.4245 9.41504 77.7828 9.36348C78.1411 9.31139 78.4997 9.2554 78.8586 9.19551C79.2175 9.13561 79.582 9.07728 79.9523 9.02051C79.9341 9.2252 79.9203 9.4278 79.9109 9.62832C79.9016 9.82884 79.8969 10.0265 79.8969 10.2213C79.8979 10.5899 79.919 10.9581 79.9602 11.3244C80.0018 11.7067 80.0367 12.0744 80.0648 12.4275C79.7299 12.3994 79.4227 12.3692 79.143 12.3369" fill="black"/>
<path d="M91.0218 13.1369C90.9942 13.4353 90.9546 13.7658 90.9031 14.1283C90.8515 14.4908 90.7911 14.8658 90.7218 15.2533C90.652 15.6398 90.5752 16.0028 90.4914 16.3424C90.418 16.6469 90.3294 16.9476 90.2257 17.2432C90.1637 17.4434 90.0692 17.6321 89.946 17.8018C89.8158 17.9413 89.6622 18.1088 89.4851 18.3041C89.3048 18.5033 89.1136 18.6924 88.9125 18.8705C88.7188 19.0431 88.5096 19.1974 88.2875 19.3314C88.1062 19.4486 87.8962 19.5137 87.6804 19.5197C87.4573 19.5152 87.2352 19.489 87.0171 19.4416C86.7614 19.3895 86.496 19.3291 86.221 19.2604C85.946 19.1916 85.6783 19.1171 85.4179 19.0369C85.1575 18.9577 84.9294 18.89 84.7336 18.8338C84.7518 19.8208 84.789 20.8104 84.8453 21.8025C84.9015 22.7947 84.9388 23.7885 84.957 24.7838C84.6129 24.6628 84.257 24.5785 83.8953 24.5322C83.5307 24.4859 83.1677 24.4512 82.8062 24.4283C82.4448 24.4054 82.0817 24.3775 81.7171 24.3447C81.3539 24.312 80.994 24.2488 80.6414 24.1557C80.7158 23.8395 80.7903 23.5161 80.8648 23.1853C80.9394 22.8609 80.9916 22.5318 81.0211 22.2002C81.038 22.0232 81.0707 21.848 81.1187 21.6768C81.1651 21.5137 81.214 21.3554 81.2656 21.2018C81.3171 21.0481 81.3692 20.8919 81.4218 20.733C81.4737 20.5702 81.5042 20.4013 81.5125 20.2307C81.5682 19.6812 81.6007 19.132 81.6101 18.583C81.6195 18.034 81.6242 17.4895 81.6242 16.9494C81.6242 16.7354 81.6172 16.5189 81.6031 16.3002C81.5892 16.0816 81.5589 15.8643 81.5125 15.6502C81.4399 15.2489 81.3955 14.8429 81.3796 14.4354C81.3656 14.0442 81.3585 13.6393 81.3585 13.2205C81.3571 12.4383 81.3049 11.6569 81.2023 10.8814C81.0981 10.0945 80.9911 9.31921 80.8812 8.55566C81.0541 8.62826 81.2343 8.68221 81.4187 8.7166C81.6271 8.75827 81.8411 8.79082 82.0609 8.81426C82.2807 8.8377 82.4971 8.85384 82.7101 8.86269C82.9242 8.87207 83.1151 8.87676 83.2828 8.87676C83.925 8.87676 84.5674 8.86269 85.2101 8.83457C85.8528 8.80644 86.4953 8.79238 87.1375 8.79238C87.5986 8.79986 88.053 8.90448 88.471 9.09941C88.934 9.3057 89.3626 9.58155 89.7422 9.91738C90.1226 10.2493 90.4439 10.6434 90.6922 11.083C90.9332 11.499 91.0608 11.971 91.0625 12.4518C91.0625 12.608 91.0484 12.8377 91.0203 13.1361M87.5046 14.1518C87.4953 13.9377 87.4812 13.7122 87.4625 13.4752C87.4437 13.2382 87.4205 13.0215 87.3929 12.8252C87.3854 12.7048 87.3571 12.5867 87.3093 12.476C87.1761 12.3679 87.0174 12.2958 86.8484 12.2666C86.588 12.1921 86.2994 12.1156 85.9828 12.0369C85.6661 11.9583 85.3612 11.8885 85.0679 11.8275C84.7747 11.7671 84.563 11.7182 84.4328 11.6807C84.4609 12.426 84.4888 13.1687 84.5164 13.9088C84.544 14.6489 84.5718 15.3913 84.6 16.1361C84.8698 16.1643 85.1421 16.1994 85.4171 16.2416C85.6967 16.2838 85.979 16.3047 86.2617 16.3041C86.3505 16.3013 86.4381 16.2825 86.5203 16.2486C86.6215 16.2098 86.7194 16.1631 86.8133 16.1088C86.9099 16.0539 87.0033 15.9933 87.0929 15.9275C87.1695 15.8726 87.2418 15.812 87.3093 15.7463C87.3698 15.6764 87.4107 15.5918 87.4281 15.501C87.4567 15.3908 87.4778 15.2788 87.4914 15.1658C87.505 15.0546 87.512 14.9427 87.5125 14.8307V14.5721C87.5125 14.5075 87.5078 14.3679 87.4984 14.1533" fill="black"/>
<path d="M101.004 14.2342C100.931 15.4493 100.895 16.6665 100.895 17.8857C100.895 18.168 100.909 18.4502 100.937 18.7311C100.965 19.0117 100.979 19.2935 100.979 19.5756C100.979 19.6876 100.965 19.867 100.937 20.1139C100.909 20.3607 100.871 20.6423 100.825 20.9584C100.778 21.2751 100.725 21.6034 100.664 21.9436C100.604 22.2837 100.536 22.6003 100.462 22.8936C100.398 23.149 100.319 23.4006 100.227 23.6475C100.188 23.7945 100.108 23.9275 99.997 24.0311C99.8293 24.143 99.6407 24.2618 99.4313 24.3873C99.2242 24.5118 99.0097 24.6237 98.7892 24.7225C98.5739 24.8187 98.3523 24.9001 98.1259 24.9662C97.9175 25.0291 97.7013 25.062 97.4837 25.0639C97.2216 25.0487 96.963 24.996 96.7157 24.9076C96.3897 24.8034 96.0512 24.6777 95.7001 24.5303C95.3491 24.3829 95.0186 24.2318 94.7087 24.0771C94.3962 23.9209 94.1564 23.7928 93.9892 23.6928C93.4717 23.3984 93.0369 22.9781 92.7251 22.4709C92.4224 21.9667 92.1984 21.4193 92.061 20.8475C91.9157 20.2548 91.8291 19.6493 91.8025 19.0396C91.7748 18.4204 91.7608 17.836 91.7603 17.2865C91.7603 16.7469 91.7863 16.2094 91.8384 15.674C91.8904 15.1386 91.9465 14.6008 92.0063 14.0607C92.0668 13.5212 92.1225 12.9811 92.1735 12.4404C92.2246 11.8998 92.2506 11.3597 92.2517 10.8201C92.252 10.5631 92.2335 10.3064 92.1962 10.0521C92.1587 9.80058 92.1121 9.5446 92.0564 9.28418C92.3454 9.3123 92.6319 9.33835 92.9157 9.3623C93.1996 9.38626 93.486 9.39772 93.7751 9.39668C94.2427 9.39563 94.7099 9.36772 95.1743 9.31308C95.0188 9.87376 94.8944 10.4426 94.8017 11.017C94.6944 11.6592 94.6056 12.3201 94.5353 12.9998C94.4649 13.6795 94.411 14.3477 94.3735 15.0045C94.3365 15.6607 94.3181 16.2495 94.3181 16.7709C94.3181 16.9105 94.3204 17.1225 94.3251 17.4068C94.3298 17.6912 94.3438 18.0053 94.3673 18.349C94.3907 18.6938 94.4209 19.0477 94.4579 19.4107C94.4914 19.7522 94.5452 20.0913 94.6188 20.4264C94.6762 20.7002 94.7629 20.9671 94.8774 21.2225C94.9443 21.4039 95.0799 21.5518 95.2548 21.6342C95.3762 21.6623 95.4996 21.6855 95.6251 21.7037C95.7523 21.7228 95.8808 21.7322 96.0095 21.7318C96.1394 21.7295 96.2686 21.7109 96.3939 21.6764C96.5361 21.6405 96.6724 21.5842 96.7985 21.5092C96.9188 21.4389 97.0248 21.3467 97.111 21.2373C97.1941 21.1319 97.2385 21.0012 97.2368 20.867C97.2365 20.4005 97.2599 19.9342 97.3071 19.4701C97.3537 19.0107 97.3769 18.5491 97.3767 18.0873C97.3767 17.1008 97.3488 16.1165 97.293 15.1342C97.2373 14.1519 97.2095 13.1532 97.2095 12.1381C97.2093 11.8405 97.2373 11.5436 97.293 11.2514C97.3487 10.959 97.3674 10.6609 97.3485 10.3639C97.9933 10.4107 98.6428 10.4433 99.297 10.4615C99.9511 10.4798 100.601 10.5264 101.245 10.6014C101.158 11.8118 101.078 13.0245 101.006 14.2396" fill="black"/>
<path d="M113.171 10.9103C113.087 11.3343 113.009 11.7554 112.937 12.1736C112.826 12.8348 112.754 13.5018 112.72 14.1713C112.688 14.8327 112.625 15.4984 112.532 16.1682C112.428 17.0338 112.309 17.895 112.176 18.7518C112.041 19.611 111.973 20.4796 111.974 21.3494C111.974 21.9359 112.001 22.527 112.057 23.1229C112.113 23.7187 112.15 24.3098 112.169 24.8963C111.48 24.8499 110.798 24.8153 110.123 24.7924C109.447 24.7695 108.766 24.7252 108.078 24.6596C108.124 24.1757 108.168 23.6916 108.21 23.2072C108.251 22.7228 108.272 22.2387 108.273 21.7549C108.279 21.2124 108.22 20.6711 108.099 20.1424C107.985 19.67 107.816 19.2127 107.595 18.7799C107.371 18.3419 107.11 17.9237 106.814 17.5299C106.512 17.1247 106.179 16.6986 105.816 16.2518C105.797 16.7544 105.79 17.2596 105.795 17.7674C105.8 18.2647 105.76 18.7615 105.676 19.2518C105.572 19.8663 105.474 20.4715 105.383 21.0674C105.289 21.6727 105.242 22.2845 105.243 22.8971C105.243 23.1319 105.255 23.3666 105.278 23.6002C105.302 23.8283 105.337 24.0585 105.383 24.2908C105.104 24.2908 104.817 24.2955 104.524 24.3049C104.23 24.3143 103.939 24.3189 103.651 24.3189C103.377 24.3182 103.103 24.2921 102.834 24.2408C102.559 24.1887 102.286 24.1257 102.017 24.0518C102.184 22.6455 102.345 21.2442 102.499 19.8479C102.653 18.4333 102.73 17.0114 102.729 15.5885C102.729 15.0516 102.696 14.5152 102.631 13.9822C102.566 13.4426 102.488 12.9005 102.397 12.3557C102.306 11.8109 102.206 11.2661 102.097 10.7213C101.99 10.1765 101.894 9.64342 101.81 9.12207C102.224 9.18537 102.642 9.21801 103.06 9.21973H104.31C104.636 9.21973 104.96 9.2291 105.281 9.24785L106.252 9.30332C106.366 9.67874 106.454 10.0614 106.517 10.4486C106.592 10.8867 106.67 11.3268 106.752 11.7689C106.833 12.2111 106.924 12.6322 107.024 13.0322C107.106 13.378 107.233 13.7113 107.402 14.0236C107.631 14.437 107.885 14.836 108.163 15.2182C108.437 15.5947 108.687 15.9888 108.91 16.3979C109.086 16.7145 109.258 17.0288 109.426 17.3408C109.594 17.6528 109.757 17.9669 109.915 18.283C109.971 17.4919 110.023 16.7005 110.071 15.9088C110.12 15.1171 110.143 14.3257 110.141 13.5346C110.146 12.8228 110.057 12.1134 109.875 11.4252C109.688 10.7433 109.464 10.072 109.205 9.41426C109.559 9.42363 109.911 9.44004 110.26 9.46348C110.608 9.48691 110.96 9.51295 111.314 9.5416C111.668 9.56973 112.022 9.59577 112.376 9.61972C112.73 9.64368 113.084 9.65045 113.438 9.64004C113.354 10.0567 113.27 10.4781 113.186 10.9041" fill="black"/>
<path d="M123.687 11.5522C123.222 12.0782 122.752 12.5972 122.277 13.1092C121.802 13.6212 121.327 14.1357 120.852 14.6529C120.378 15.1696 119.922 15.7024 119.484 16.2514C119.558 16.3446 119.691 16.5053 119.881 16.7334L120.53 17.5076C120.773 17.7962 121.024 18.1014 121.284 18.4232L122.011 19.317C122.234 19.5915 122.421 19.8258 122.569 20.0201C122.668 20.1322 122.747 20.2597 122.804 20.3975C122.892 20.729 123.012 21.0515 123.16 21.3607C123.304 21.6592 123.458 21.9477 123.621 22.2264C123.784 22.505 123.942 22.7889 124.096 23.0779C124.253 23.3741 124.386 23.6824 124.494 23.9998C123.852 24.0279 123.245 24.0652 122.672 24.1115C122.07 24.1636 121.474 24.271 120.891 24.4326C120.795 23.7883 120.646 23.153 120.445 22.5334C120.232 21.9045 119.926 21.3111 119.537 20.7732C119.149 20.2297 118.799 19.6604 118.489 19.0693C118.182 18.4829 117.865 17.8962 117.54 17.3092C117.521 17.6633 117.493 18.0126 117.456 18.3568C117.419 18.7048 117.4 19.0545 117.4 19.4045C117.4 19.8502 117.423 20.2956 117.469 20.7389C117.516 21.1811 117.574 21.6186 117.644 22.0514C117.715 22.4842 117.787 22.917 117.861 23.3498C117.935 23.7826 118.001 24.2178 118.056 24.6553H117.656C117.369 24.6646 117.082 24.6505 116.797 24.6131C116.513 24.5756 116.229 24.5316 115.945 24.4811L115.093 24.3248C114.805 24.2729 114.513 24.2424 114.22 24.2334C114.295 23.3766 114.395 22.5225 114.52 21.6709C114.646 20.8129 114.709 19.9467 114.709 19.0795C114.709 18.2982 114.674 17.4628 114.604 16.5732C114.534 15.6837 114.443 14.7805 114.332 13.8639C114.22 12.9467 114.097 12.0436 113.962 11.1545C113.827 10.2654 113.694 9.42975 113.563 8.64746C113.861 8.70319 114.166 8.74981 114.478 8.78731C114.791 8.82477 115.106 8.84355 115.421 8.84355C115.83 8.84355 116.245 8.83418 116.664 8.81543C117.075 8.79894 117.479 8.69928 117.851 8.52246V10.2959C117.851 10.6739 117.83 11.0515 117.788 11.4272C117.746 11.7995 117.702 12.1699 117.655 12.5381C117.609 12.9063 117.565 13.2764 117.523 13.6482C117.481 14.0192 117.46 14.3922 117.46 14.7654C117.46 14.8686 117.46 14.9686 117.467 15.0662C117.473 15.1677 117.489 15.2683 117.516 15.3662C117.898 14.7886 118.245 14.23 118.557 13.6904C118.869 13.1508 119.162 12.6087 119.437 12.0639C119.711 11.5191 119.969 10.9579 120.212 10.3803C120.454 9.80267 120.691 9.1834 120.924 8.52246C121.247 8.68896 121.58 8.83356 121.923 8.95527C122.262 9.07663 122.601 9.18626 122.938 9.28418L123.965 9.57715C124.309 9.67507 124.654 9.78444 124.998 9.90527C124.589 10.473 124.151 11.0199 123.685 11.5459" fill="black"/>
</g>
</g>
</g>
<defs>
<clipPath id="clip0_80_116">
<rect width="125" height="32" fill="white"/>
</clipPath>
<clipPath id="clip1_80_116">
<rect width="125" height="32" fill="white"/>
</clipPath>
<clipPath id="clip2_80_116">
<rect width="125" height="31.9859" fill="white" transform="translate(0 0.00683594)"/>
</clipPath>
</defs>
</svg>
