<svg width="132" height="24" viewBox="0 0 132 24" fill="none" xmlns="http://www.w3.org/2000/svg">
<path d="M132 0H108V24H132V0Z" fill="#00B67A"/>
<path d="M132 0H120V24H132V0Z" fill="#CCD1D9"/>
<path d="M128.401 10.1177H121.981L120.007 4.01514L118.021 10.1177L111.601 10.1057L116.791 13.8821L114.804 19.9847L119.995 16.2083L125.185 19.9847L123.209 13.8821L128.401 10.1177Z" fill="white"/>
<path d="M123.653 15.2616L123.209 13.8816L120.006 16.2084L123.653 15.2616Z" fill="#CCD1D9"/>
<path d="M105 0H81V24H105V0Z" fill="#00B67A"/>
<path d="M101.399 10.1177H94.9786L93.0046 4.01514L91.0186 10.1177L84.5986 10.1063L89.7892 13.8827L87.802 19.9853L92.9926 16.2089L98.1832 19.9853L96.2074 13.8827L101.399 10.1177Z" fill="white"/>
<path d="M96.6528 15.2616L96.2088 13.8816L93.0054 16.2084L96.6528 15.2616Z" fill="#00B67A"/>
<path d="M78 0H54V24H78V0Z" fill="#00B67A"/>
<path d="M74.3986 10.1177H67.9786L66.0046 4.01514L64.0186 10.1177L57.5986 10.1063L62.7892 13.8827L60.802 19.9853L65.9926 16.2089L71.1832 19.9853L69.2074 13.8827L74.3986 10.1177Z" fill="white"/>
<path d="M69.6528 15.2616L69.2088 13.8816L66.0054 16.2084L69.6528 15.2616Z" fill="#00B67A"/>
<path d="M51 0H27V24H51V0Z" fill="#00B67A"/>
<path d="M47.4006 10.1177H40.9806L39.0066 4.01514L37.0206 10.1177L30.6006 10.1063L35.7912 13.8827L33.804 19.9853L38.9946 16.2089L44.1852 19.9853L42.2094 13.8827L47.4006 10.1177Z" fill="white"/>
<path d="M42.6547 15.2616L42.2107 13.8816L39.0073 16.2084L42.6547 15.2616Z" fill="#00B67A"/>
<path d="M24 0H0V24H24V0Z" fill="#00B67A"/>
<path d="M20.4006 10.1177H13.9806L12.0066 4.01514L10.0206 10.1177L3.60059 10.1063L8.79119 13.8827L6.80399 19.9853L11.9946 16.2089L17.1852 19.9853L15.2094 13.8827L20.4006 10.1177Z" fill="white"/>
<path d="M15.6547 15.2616L15.2107 13.8816L12.0073 16.2084L15.6547 15.2616Z" fill="#00B67A"/>
</svg>
