<svg width="120" height="128" viewBox="0 0 120 128" fill="none" xmlns="http://www.w3.org/2000/svg">
<path d="M60 0C71.8669 0 83.4672 3.51894 93.3342 10.1118C103.201 16.7047 110.891 26.0754 115.433 37.039C119.974 48.0025 121.162 60.0665 118.847 71.7054C116.532 83.3443 110.818 94.0352 102.426 102.426C94.0352 110.818 83.3443 116.532 71.7054 118.847C60.0665 121.162 48.0025 119.974 37.039 115.433C26.0754 110.891 16.7047 103.201 10.1118 93.3342C3.51894 83.4672 0 71.8669 0 60C0 44.087 6.32141 28.8258 17.5736 17.5736C28.8258 6.32141 44.087 0 60 0Z" fill="#00BAFC"/>
<path d="M84.9043 127.076L84.8963 127.076C83.12 127.061 81.6963 126.972 80.4159 126.798C78.785 126.575 77.3926 126.213 76.1594 125.688L76.1515 125.685L76.1437 125.682C75.1143 125.221 74.8368 123.545 74.8352 122.627V122.204C69.9178 122.421 64.9396 122.53 60.0224 122.53C55.4512 122.53 50.8216 122.436 46.2455 122.248V122.625C46.2443 123.543 45.9678 125.219 44.9391 125.681L44.9304 125.685L44.9216 125.689C43.688 126.213 42.2957 126.575 40.6651 126.798C39.3849 126.972 37.9617 127.061 36.1862 127.076L36.1782 127.076L36.1702 127.076C34.394 127.061 32.9703 126.972 31.69 126.798C30.0592 126.575 28.6668 126.213 27.4334 125.689L27.4255 125.685L27.4176 125.682C26.3877 125.221 26.1108 123.545 26.1096 122.626C26.1092 122.024 26.1089 121.421 26.1088 120.818C24.725 120.678 23.3291 120.528 21.9483 120.371C20.6586 120.222 19.4028 119.616 18.4106 118.664C17.4059 117.701 16.7876 116.496 16.6694 115.271C16.045 108.668 15.4211 102.066 14.7972 95.464C14.1832 88.9665 13.5692 82.4691 12.9548 75.9716C12.8576 74.9664 13.1316 74.0021 13.7478 73.1798L31.4124 45.0871C32.0157 44.1265 33.0121 43.2303 34.2177 42.5642C35.4231 41.8981 36.7123 41.5312 37.8477 41.5312H85.4163C86.564 41.5312 87.8382 41.9192 89.0042 42.6236C90.1702 43.328 91.1064 44.2753 91.6403 45.291L106.262 73.1322C106.895 73.9545 107.189 74.9589 107.091 75.9716C105.853 89.071 104.614 102.172 103.376 115.27C103.258 116.496 102.64 117.701 101.635 118.664C100.643 119.616 99.3871 120.222 98.0987 120.371C97.0523 120.49 96.0044 120.604 94.9721 120.712V122.625C94.9704 123.544 94.6932 125.22 93.6645 125.681L93.6562 125.685L93.6478 125.688C92.4146 126.213 91.0225 126.575 89.3921 126.798C88.1119 126.972 86.6884 127.061 84.9123 127.076L84.9043 127.076Z" fill="white"/>
<path d="M84.9047 126.153C87.852 126.128 90.7979 125.897 93.2872 124.839C93.7113 124.649 94.0476 123.634 94.0494 122.625C94.0494 121.71 94.0494 120.794 94.0494 119.879C95.3641 119.745 96.6798 119.603 97.9932 119.454C100.25 119.193 102.257 117.256 102.458 115.183C103.696 102.085 104.934 88.9843 106.173 75.885C106.254 75.0451 105.992 74.2664 105.484 73.6368L90.8236 45.7207C89.8793 43.9241 87.4468 42.4546 85.4167 42.4546H37.8481C35.8181 42.4546 33.2733 43.8606 32.1943 45.5787L14.5084 73.7051C14.0361 74.3223 13.7954 75.0753 13.8743 75.885C15.1128 88.9843 16.3501 102.084 17.5887 115.183C17.7888 117.256 19.7972 119.193 22.053 119.454C23.7117 119.643 25.3717 119.819 27.0321 119.983C27.0321 120.864 27.0326 121.745 27.0331 122.625C27.0344 123.634 27.3693 124.649 27.7948 124.839C30.2845 125.897 33.2314 126.128 36.1786 126.153C39.1245 126.128 42.0709 125.897 44.5611 124.839C44.9844 124.649 45.3215 123.634 45.3228 122.625C45.3228 122.179 45.3228 121.732 45.3228 121.286C50.2207 121.5 55.121 121.608 60.0229 121.608C65.2693 121.607 70.5174 121.485 75.7587 121.239C75.7587 121.701 75.7587 122.163 75.7587 122.625C75.7605 123.634 76.0954 124.649 76.5209 124.839C79.0102 125.897 81.9574 126.128 84.9047 126.153ZM84.9047 128C84.8994 128 84.8941 128 84.8888 128C83.0724 127.984 81.6116 127.893 80.2916 127.713C78.5782 127.479 77.1086 127.095 75.7988 126.538C75.7883 126.534 75.7778 126.529 75.7674 126.525C75.0696 126.213 74.5533 125.576 74.2329 124.633C74.0808 124.186 73.979 123.679 73.9358 123.167C69.3116 123.357 64.6404 123.454 60.0229 123.454C55.75 123.454 51.4261 123.371 47.1422 123.208C47.0971 123.706 46.9964 124.198 46.8479 124.634C46.5276 125.575 46.0128 126.211 45.3179 126.523C45.3063 126.528 45.2947 126.533 45.283 126.538C43.9728 127.095 42.5033 127.479 40.7903 127.713C39.4705 127.893 38.0102 127.984 36.1946 128C36.1839 128 36.1733 128 36.1627 128C34.3464 127.984 32.8857 127.893 31.5657 127.713C29.8524 127.479 28.3828 127.095 27.0728 126.538C27.0623 126.534 27.0518 126.529 27.0413 126.525C26.3434 126.213 25.8272 125.576 25.5068 124.633C25.3014 124.029 25.1878 123.316 25.1869 122.628L25.1869 122.552C25.1867 122.252 25.1866 121.952 25.1864 121.652C24.0721 121.536 22.9535 121.414 21.8444 121.288C21.8433 121.288 21.8422 121.288 21.841 121.288C20.3539 121.116 18.9089 120.421 17.772 119.331C16.6082 118.214 15.8904 116.804 15.751 115.36C15.7509 115.359 15.7508 115.358 15.7507 115.357C15.1238 108.727 14.4973 102.097 13.8708 95.4678C13.2595 88.9985 12.6481 82.5288 12.0364 76.0595C11.9199 74.8523 12.2566 73.6484 12.9857 72.6585L30.6314 44.596C31.3161 43.5057 32.4316 42.4969 33.7717 41.7564C35.1115 41.0161 36.5592 40.6084 37.8481 40.6084H85.4167C86.7302 40.6084 88.1739 41.0436 89.4819 41.8337C90.7899 42.6239 91.8467 43.6993 92.4578 44.8618L107.044 72.6359C107.786 73.6322 108.129 74.8408 108.011 76.0613C106.772 89.1598 105.534 102.26 104.296 115.357C104.295 115.358 104.295 115.359 104.295 115.36C104.156 116.804 103.438 118.214 102.275 119.33C101.138 120.421 99.6926 121.116 98.2051 121.288C98.204 121.288 98.2029 121.288 98.2019 121.288C97.4321 121.376 96.6608 121.461 95.8955 121.543V122.625C95.8955 122.627 95.8955 122.628 95.8955 122.629C95.8943 123.317 95.7803 124.029 95.5744 124.634C95.254 125.576 94.7386 126.212 94.0427 126.524C94.0316 126.529 94.0204 126.534 94.0093 126.538C92.6994 127.095 91.2301 127.479 89.5172 127.713C88.1974 127.893 86.7369 127.984 84.9207 128C84.9154 128 84.91 128 84.9047 128Z" fill="white"/>
<path fill-rule="evenodd" clip-rule="evenodd" d="M105.72 74.1383L90.7956 45.7214C90.2305 44.7762 89.4421 43.9842 88.4996 43.4147C87.5571 42.8452 86.4892 42.5157 85.3896 42.4551H37.8198C36.7035 42.5182 35.6156 42.8318 34.6369 43.3725C33.6582 43.9133 32.8137 44.6673 32.166 45.5788L14.3151 73.9685L60.8686 98.8325L105.72 74.1383Z" fill="#F8CC5D"/>
<path fill-rule="evenodd" clip-rule="evenodd" d="M45.3276 122.625C45.3276 123.633 44.9893 124.647 44.5651 124.84C42.0751 125.899 39.1286 126.13 36.1822 126.155C33.2348 126.13 30.2883 125.899 27.7993 124.84C27.3733 124.65 27.0382 123.636 27.0373 122.625C27.0373 120.399 27.0373 118.173 27.0373 115.946C27.0336 114.936 27.4213 114.103 27.8939 114.097H44.4691C44.9422 114.103 45.3294 114.936 45.3271 115.946L45.3276 122.625Z" fill="black"/>
<path fill-rule="evenodd" clip-rule="evenodd" d="M94.0463 122.625C94.0463 123.633 93.7089 124.647 93.2843 124.84C90.7952 125.899 87.8492 126.13 84.9014 126.155C81.9549 126.13 79.0075 125.899 76.5184 124.84C76.0924 124.65 75.7574 123.636 75.756 122.625V115.946C75.756 114.936 76.1414 114.103 76.6131 114.097H93.1883C93.6623 114.103 94.0486 114.936 94.0463 115.946C94.0463 118.173 94.0463 120.4 94.0463 122.625Z" fill="black"/>
<path d="M84.88 127.077H84.8718C83.0947 127.061 81.6713 126.973 80.3921 126.798C78.7605 126.575 77.3682 126.212 76.1355 125.688L76.1279 125.684L76.1206 125.681C75.0898 125.221 74.8131 123.545 74.8117 122.627V122.204C69.8935 122.421 64.9153 122.531 59.9993 122.531C55.4285 122.531 50.7987 122.436 46.2221 122.249V122.626C46.2207 123.544 45.944 125.22 44.9136 125.681L44.906 125.684L44.8983 125.688C43.6651 126.212 42.2729 126.575 40.6417 126.798C39.363 126.973 37.9396 127.061 36.162 127.077H36.1539H36.1458C34.3681 127.061 32.9447 126.973 31.666 126.798C30.0344 126.575 28.6421 126.212 27.4094 125.688L27.4018 125.684L27.3946 125.681C26.3638 125.221 26.087 123.545 26.0857 122.627C26.0852 122.023 26.0852 121.421 26.0852 120.818C24.7015 120.678 23.3056 120.528 21.9242 120.37C20.6346 120.221 19.3789 119.615 18.3869 118.664C17.3822 117.701 16.7638 116.496 16.6462 115.271C16.0269 108.72 15.4076 102.17 14.7888 95.6211C14.1695 89.0714 13.5502 82.522 12.9309 75.9725C12.8214 74.8394 13.1959 73.7345 13.9852 72.8632C14.9492 71.7993 16.4294 71.1875 18.0466 71.1841H101.95C103.569 71.1875 105.049 71.7993 106.012 72.8628C106.802 73.7343 107.177 74.8392 107.068 75.9741L105.21 95.6211L103.352 115.27C103.234 116.495 102.616 117.7 101.612 118.664C100.62 119.615 99.3639 120.221 98.0757 120.37C97.0494 120.487 96.001 120.601 94.9482 120.711V122.626C94.9468 123.544 94.6701 125.219 93.6402 125.681L93.6325 125.684L93.6244 125.688C92.3917 126.212 90.9994 126.575 89.3687 126.798C88.09 126.973 86.6662 127.061 84.8881 127.077H84.88Z" fill="black"/>
<path d="M84.8812 126.154C87.8294 126.127 90.7753 125.897 93.2642 124.838C93.6883 124.648 94.025 123.633 94.0264 122.625C94.0264 121.709 94.0264 120.794 94.0264 119.878C95.3411 119.744 96.6572 119.603 97.9711 119.453C100.227 119.192 102.235 117.256 102.434 115.182C103.673 102.083 104.911 88.9844 106.15 75.8853C106.35 73.8115 104.461 72.1121 101.951 72.1069C73.9833 72.1069 46.0165 72.1069 18.0497 72.1069C15.5401 72.1121 13.6507 73.8115 13.8512 75.8853C15.0898 88.9844 16.3279 102.083 17.5665 115.182C17.7657 117.256 19.7742 119.192 22.03 119.453C23.6887 119.642 25.3487 119.818 27.0096 119.982C27.0096 120.863 27.0096 121.744 27.01 122.625C27.0114 123.633 27.3467 124.648 27.7722 124.838C30.2611 125.897 33.2083 126.127 36.1552 126.154C39.1024 126.127 42.0483 125.897 44.5381 124.838C44.9627 124.648 45.2989 123.633 45.3003 122.625C45.3003 122.178 45.3003 121.732 45.3003 121.285C50.1987 121.5 55.099 121.607 60.0005 121.607C65.2465 121.607 70.4938 121.484 75.7361 121.238C75.7361 121.7 75.7361 122.163 75.7361 122.625C75.7375 123.633 76.0728 124.648 76.4983 124.838C78.9872 125.897 81.9353 126.127 84.8812 126.154ZM84.8812 128C84.8758 128 84.8704 128 84.865 128C83.0477 127.983 81.5874 127.892 80.269 127.712C78.5545 127.478 77.0847 127.094 75.7753 126.537C75.7654 126.532 75.7555 126.528 75.7456 126.524C75.0474 126.212 74.5309 125.576 74.2104 124.633C74.0581 124.185 73.9562 123.679 73.9129 123.166C69.2881 123.357 64.6168 123.454 60.0005 123.454C55.7277 123.454 51.4039 123.371 47.1198 123.208C47.0748 123.706 46.9738 124.197 46.8255 124.633C46.5051 125.575 45.989 126.211 45.2922 126.523C45.2818 126.528 45.2714 126.532 45.2606 126.537C43.9508 127.094 42.4815 127.478 40.7678 127.712C39.4495 127.892 37.9891 127.983 36.1714 128C36.1606 128 36.1497 128 36.1389 128C34.3212 127.983 32.8608 127.892 31.5425 127.712C29.8284 127.478 28.3586 127.094 27.0492 126.537C27.0393 126.532 27.0294 126.528 27.0195 126.524C26.3213 126.212 25.8048 125.576 25.4843 124.633C25.2784 124.028 25.1648 123.316 25.1639 122.628C25.1639 122.302 25.1634 121.976 25.1634 121.651C24.0497 121.535 22.931 121.414 21.8213 121.287C21.82 121.287 21.8182 121.287 21.8182 121.287C20.3308 121.115 18.8858 120.42 17.7491 119.33C16.5853 118.214 15.8678 116.803 15.7289 115.359L15.7285 115.356C15.0997 108.704 14.4705 102.052 13.8418 95.3995C13.2324 88.9528 12.623 82.5059 12.0132 76.059C11.8793 74.6636 12.3373 73.3085 13.3027 72.243C14.4403 70.9871 16.1693 70.2646 18.0461 70.2607C18.0461 70.2607 18.0483 70.2607 18.0497 70.2607H101.951C101.952 70.2607 101.955 70.2607 101.955 70.2607C103.831 70.2646 105.56 70.9871 106.698 72.2428C107.663 73.3081 108.121 74.6634 107.988 76.059L104.272 115.356L104.272 115.359C104.133 116.803 103.416 118.213 102.252 119.33C101.115 120.42 99.6703 121.115 98.1829 121.287L98.1802 121.287C97.4208 121.374 96.6491 121.459 95.8725 121.542V122.625V122.628C95.8716 123.316 95.7576 124.028 95.5516 124.633C95.2307 125.575 94.7151 126.211 94.0187 126.523C94.0083 126.527 93.998 126.532 93.9872 126.537C92.6778 127.094 91.208 127.478 89.4944 127.712C88.1765 127.892 86.7157 127.983 84.8975 128C84.8921 128 84.8867 128 84.8812 128Z" fill="white"/>
<path fill-rule="evenodd" clip-rule="evenodd" d="M102.46 115.182C102.26 117.256 100.252 119.193 97.9956 119.453C72.7637 122.325 47.2874 122.325 22.0555 119.453C19.799 119.192 17.7909 117.255 17.5915 115.182C16.353 102.084 15.1147 88.9845 13.8766 75.8851C13.6758 73.8118 15.5644 72.1115 18.0766 72.1069H101.976C104.486 72.1115 106.375 73.8118 106.176 75.8851C104.937 88.9845 103.698 102.084 102.46 115.182Z" fill="#F59964"/>
<path fill-rule="evenodd" clip-rule="evenodd" d="M47.6376 90.8553C50.9094 91.8222 54.2302 92.6147 57.586 93.2295C57.7843 94.8487 57.6268 96.4917 57.1245 98.0438C56.2276 100.824 54.2692 103.138 51.6752 104.482C49.0813 105.826 46.0615 106.092 43.2728 105.221C41.901 104.779 40.6303 104.07 39.5342 103.134C38.4381 102.199 37.5383 101.055 36.8867 99.7697C36.2351 98.4842 35.8447 97.0824 35.738 95.6452C35.6314 94.2079 35.8106 92.7638 36.2653 91.3962C36.7709 89.8611 37.5988 88.4518 38.6934 87.2627C41.6043 88.6287 44.5905 89.8282 47.6376 90.8553Z" fill="white"/>
<path fill-rule="evenodd" clip-rule="evenodd" d="M38.6862 87.263C38.3278 88.9494 38.4079 90.6995 38.9188 92.3461C39.4297 93.9928 40.3544 95.4809 41.6045 96.6682C42.5564 97.5681 43.6777 98.2699 44.9031 98.7328C46.1286 99.1957 47.4338 99.4106 48.743 99.3648C50.0522 99.319 51.3393 99.0136 52.5294 98.4662C53.7195 97.9188 54.7891 97.1404 55.6758 96.1762C56.4775 95.3126 57.1218 94.3154 57.5797 93.2297C57.326 91.1707 56.4876 89.2276 55.1637 87.6304C53.8398 86.0332 52.0859 84.8489 50.1097 84.2177C48.1129 83.589 45.9783 83.5415 43.9555 84.0807C41.9327 84.6199 40.105 85.7237 38.6862 87.263Z" fill="black"/>
<path fill-rule="evenodd" clip-rule="evenodd" d="M74.7025 90.6511C78.7848 92.2817 84.338 94.0106 84.338 94.0106C84.4155 95.6391 84.1412 97.2652 83.534 98.7783C82.441 101.488 80.3222 103.657 77.6384 104.812C74.9546 105.968 71.9231 106.017 69.2033 104.949C67.8667 104.41 66.6501 103.612 65.6237 102.6C64.5974 101.589 63.7816 100.384 63.2235 99.0554C62.6654 97.7267 62.3761 96.3007 62.3722 94.8596C62.3684 93.4185 62.65 91.991 63.201 90.6594C63.8141 89.1643 64.7402 87.8178 65.9171 86.7104C65.9171 86.7104 70.6137 89.0177 74.7025 90.6511Z" fill="white"/>
<path fill-rule="evenodd" clip-rule="evenodd" d="M65.915 86.7116C65.4376 88.3682 65.3929 90.1195 65.7851 91.7983C66.1773 93.4771 66.9933 95.0274 68.1553 96.301C69.0406 97.2666 70.109 98.0466 71.2983 98.5957C72.4877 99.1449 73.7743 99.4522 75.0835 99.4998C76.3926 99.5474 77.6982 99.3344 78.9243 98.8732C80.1504 98.4119 81.2726 97.7115 82.2257 96.8128C83.0875 96.0092 83.8018 95.0609 84.3363 94.0108C84.2303 91.9387 83.5325 89.9403 82.3256 88.2525C81.1187 86.5648 79.4534 85.2583 77.5268 84.4879C75.5798 83.7184 73.454 83.5189 71.3978 83.9127C69.3416 84.3065 67.4399 85.2772 65.915 86.7116Z" fill="black"/>
<path fill-rule="evenodd" clip-rule="evenodd" d="M76.6127 78.3132C75.4806 77.5273 74.1556 77.065 72.7803 76.9762C71.405 76.8874 70.0315 77.1754 68.8077 77.8092C67.5177 78.4669 68.6383 80.4081 69.9227 79.7541C71.8021 78.7955 73.7535 79.108 75.4723 80.2429C76.6797 81.0414 77.8127 79.1061 76.6127 78.3132Z" fill="black"/>
<path fill-rule="evenodd" clip-rule="evenodd" d="M50.9085 77.7777C49.6741 77.1652 48.2959 76.901 46.9224 77.0136C45.549 77.1263 44.2322 77.6115 43.1141 78.417C41.9339 79.256 43.3255 81.0131 44.4987 80.1777C46.2193 78.957 48.1961 78.9814 50.0611 79.8547C51.3747 80.468 52.2115 78.387 50.9085 77.7777Z" fill="black"/>
<path fill-rule="evenodd" clip-rule="evenodd" d="M86.9424 59.7111C86.9272 60.3136 86.6733 60.8855 86.2366 61.3009C85.7999 61.7163 85.216 61.9413 84.6135 61.9265H37.184C36.5813 61.9415 35.9973 61.7165 35.5604 61.3011C35.1235 60.8857 34.8695 60.3138 34.8541 59.7111V58.6302C34.8694 58.0274 35.1234 57.4555 35.5603 57.04C35.9972 56.6246 36.5812 56.3997 37.184 56.4148H84.6135C85.216 56.3999 85.7999 56.6249 86.2366 57.0403C86.6733 57.4558 86.9272 58.0276 86.9424 58.6302V59.7111Z" fill="black"/>
<path d="M47.6286 109.922C47.5529 111.637 45.5111 112.938 43.07 112.829C40.6289 112.72 38.7098 111.244 38.786 109.528C38.8622 107.812 40.9035 106.51 43.3455 106.621C45.7875 106.731 47.7043 108.206 47.6286 109.922Z" fill="#ED6F82"/>
<path d="M82.7692 109.922C82.693 111.637 80.6516 112.938 78.2106 112.829C75.7695 112.72 73.8518 111.244 73.9266 109.528C74.0013 107.812 76.0441 106.51 78.4861 106.621C80.9281 106.731 82.8449 108.206 82.7692 109.922Z" fill="#ED6F82"/>
<path d="M54.9206 90.0743C54.1043 88.7166 52.8927 87.6407 51.4479 86.9908C50.7732 86.7083 50.4123 87.781 51.0787 88.0607C52.2536 88.5992 53.2395 89.4785 53.9084 90.5843C54.3044 91.1857 55.3212 90.6868 54.9206 90.0743Z" fill="white"/>
<path d="M49.6828 86.1995C49.5088 86.1534 49.3362 86.1012 49.1622 86.0541C49.02 86.0079 48.8654 86.0187 48.731 86.0842C48.5966 86.1497 48.4929 86.2649 48.4417 86.4054C48.3942 86.5472 48.4044 86.7021 48.4701 86.8364C48.5359 86.9708 48.6518 87.0739 48.7929 87.1235C48.9669 87.1697 49.1395 87.2237 49.3135 87.2694C49.3838 87.2936 49.4581 87.3038 49.5323 87.2993C49.6065 87.2948 49.679 87.2758 49.7459 87.2432C49.8127 87.2107 49.8724 87.1653 49.9217 87.1097C49.971 87.0541 50.0088 86.9893 50.0331 86.9191C50.0573 86.8488 50.0675 86.7745 50.063 86.7003C50.0585 86.6261 50.0395 86.5536 50.007 86.4868C49.9744 86.4199 49.9291 86.3602 49.8734 86.3109C49.8178 86.2616 49.753 86.2238 49.6828 86.1995Z" fill="white"/>
<path d="M55.6233 92.083C55.5554 91.9492 55.4374 91.8477 55.295 91.8006C55.1526 91.7536 54.9973 91.7648 54.8631 91.8319C54.7317 91.9018 54.6323 92.0197 54.5856 92.161C54.5388 92.3023 54.5483 92.4562 54.612 92.5906V92.5722C54.6062 92.7202 54.6586 92.8647 54.758 92.9745C54.8574 93.0844 54.9959 93.1509 55.1437 93.1599C55.2916 93.1688 55.4371 93.1194 55.549 93.0223C55.6609 92.9252 55.7303 92.7882 55.7423 92.6405C55.7409 92.4485 55.7004 92.2588 55.6233 92.083Z" fill="white"/>
<path d="M54.6046 92.5892C54.6073 92.5979 54.6089 92.6069 54.6093 92.6161C54.6099 92.6076 54.6099 92.5991 54.6093 92.5906C54.5509 92.4405 54.5954 92.5512 54.6046 92.5892Z" fill="white"/>
<path d="M54.611 92.6162C54.611 92.6996 54.617 92.6588 54.611 92.6162V92.6162Z" fill="white"/>
<path d="M81.2022 89.3722C80.3859 88.0144 79.1743 86.9384 77.7296 86.2882C77.0548 86.0057 76.693 87.0779 77.3604 87.3585C78.5358 87.8966 79.5222 88.7758 80.1914 89.8817C80.5856 90.484 81.6014 89.9833 81.2022 89.3722Z" fill="white"/>
<path d="M75.9631 85.4989C75.7891 85.4528 75.6179 85.4002 75.4434 85.3536C75.3013 85.3072 75.1467 85.318 75.0124 85.3835C74.878 85.449 74.7744 85.5643 74.7234 85.7048C74.6754 85.8466 74.6854 86.0017 74.7512 86.1362C74.817 86.2707 74.9333 86.3738 75.0747 86.423C75.2487 86.4691 75.4213 86.5231 75.5939 86.5688C75.736 86.6155 75.8908 86.605 76.0253 86.5395C76.1598 86.4741 76.2635 86.3587 76.3144 86.218C76.3624 86.0761 76.3524 85.9209 76.2867 85.7862C76.2209 85.6516 76.1046 85.5483 75.9631 85.4989Z" fill="white"/>
<path d="M81.9038 91.381C81.8363 91.2473 81.7185 91.1458 81.5762 91.0989C81.434 91.0519 81.2789 91.0632 81.1451 91.1304C81.0133 91.1998 80.9135 91.3176 80.8667 91.4589C80.8199 91.6003 80.8297 91.7544 80.894 91.8887C80.8934 91.8826 80.8934 91.8764 80.894 91.8702C80.8848 92.0199 80.9355 92.1671 81.0348 92.2795C81.1342 92.3918 81.2741 92.4601 81.4238 92.4693C81.5735 92.4785 81.7207 92.4278 81.8331 92.3285C81.9454 92.2291 82.0137 92.0892 82.0229 91.9395C82.0222 91.7471 81.9817 91.5569 81.9038 91.381Z" fill="white"/>
<path d="M80.8867 91.8869C80.8892 91.8958 80.8904 91.905 80.8904 91.9143C80.891 91.9058 80.891 91.8973 80.8904 91.8888C80.8316 91.7382 80.8775 91.8489 80.8867 91.8869Z" fill="white"/>
<path d="M80.8922 91.9136C80.8922 91.9965 80.8992 91.9562 80.8922 91.9136V91.9136Z" fill="white"/>
<path fill-rule="evenodd" clip-rule="evenodd" d="M64.5992 105.719C64.284 104.011 61.5531 104.133 61.872 105.862C62.1254 107.233 62.0857 108.741 60.3863 108.811C58.7663 108.877 58.5503 107.393 58.4663 106.108C58.3541 104.352 55.626 104.493 55.7404 106.251C55.9343 109.265 57.3097 111.432 60.5275 111.538C63.7292 111.644 65.1032 108.451 64.5992 105.719Z" fill="black"/>
<path d="M23.6495 88.9995C22.1619 88.9995 22.1619 91.3072 23.6495 91.3072C25.137 91.3072 25.137 88.9995 23.6495 88.9995Z" fill="white" fill-opacity="0.5"/>
<path d="M91.6807 95.7056C90.1932 95.7056 90.1932 98.0133 91.6807 98.0133C93.1683 98.0133 93.1659 95.7056 91.6807 95.7056Z" fill="white" fill-opacity="0.5"/>
<path d="M57.1389 9.20606C57.3056 11.5401 57.3803 13.8787 57.4985 16.2154C57.5746 17.7007 59.874 17.523 59.7983 16.0368C59.6802 13.7005 59.6054 11.3614 59.4388 9.02791C59.334 7.54545 57.0328 7.72037 57.1389 9.20606Z" fill="white"/>
<path d="M73.911 10.9082C72.8393 12.9879 71.6859 15.0242 70.5713 17.0803C69.8615 18.3879 71.9176 19.4342 72.627 18.1248C73.743 16.0687 74.895 14.0323 75.9676 11.9527C76.6488 10.6317 74.5941 9.5845 73.911 10.9082Z" fill="white"/>
<path d="M40.8307 15.5373C42.4895 17.1873 44.0827 18.9015 45.7069 20.5856C46.7389 21.6555 48.3557 20.0115 47.3223 18.9402C45.6972 17.2565 44.1049 15.5419 42.4461 13.8924C41.3934 12.8442 39.7743 14.4869 40.8307 15.5373Z" fill="white"/>
<path d="M86.3838 21.4789C84.5991 22.9918 82.7557 24.4327 80.9404 25.9096C79.7866 26.8475 81.2884 28.5981 82.4428 27.6598C84.258 26.1829 86.1014 24.7429 87.8861 23.229C89.0197 22.2676 87.5211 20.5147 86.3838 21.4789Z" fill="white"/>
<path d="M31.1069 27.0469C33.1603 28.168 35.1685 29.3689 37.1992 30.532C38.4916 31.2704 39.5831 29.2396 38.2931 28.5012C36.2623 27.3381 34.2551 26.1372 32.2008 25.0161C30.8956 24.3035 29.7994 26.3329 31.1069 27.0469Z" fill="white"/>
<path fill-rule="evenodd" clip-rule="evenodd" d="M33.5286 74.9092H24.7663C23.2792 74.9092 23.2792 77.2169 24.7663 77.2169H33.5286C35.0157 77.2159 35.0157 74.9092 33.5286 74.9092Z" fill="white" fill-opacity="0.5"/>
<path fill-rule="evenodd" clip-rule="evenodd" d="M38.6026 74.9092C37.1151 74.9092 37.1151 77.2169 38.6026 77.2169C40.0901 77.2169 40.0887 74.9092 38.6026 74.9092Z" fill="white" fill-opacity="0.5"/>
<path fill-rule="evenodd" clip-rule="evenodd" d="M32.1456 67.6328H25.5258C25.2982 67.6381 25.0817 67.7321 24.9226 67.8949C24.7635 68.0577 24.6744 68.2763 24.6744 68.504C24.6744 68.7316 24.7635 68.9502 24.9226 69.113C25.0817 69.2758 25.2982 69.3699 25.5258 69.3751H32.1456C32.3732 69.3699 32.5897 69.2758 32.7488 69.113C32.9079 68.9502 32.9969 68.7316 32.9969 68.504C32.9969 68.2763 32.9079 68.0577 32.7488 67.8949C32.5897 67.7321 32.3732 67.6381 32.1456 67.6328Z" fill="white" fill-opacity="0.5"/>
<path fill-rule="evenodd" clip-rule="evenodd" d="M35.9789 67.6328C35.7513 67.6381 35.5348 67.7321 35.3757 67.8949C35.2166 68.0577 35.1276 68.2763 35.1276 68.504C35.1276 68.7316 35.2166 68.9502 35.3757 69.113C35.5348 69.2758 35.7513 69.3699 35.9789 69.3751C36.2065 69.3699 36.423 69.2758 36.5821 69.113C36.7412 68.9502 36.8302 68.7316 36.8302 68.504C36.8302 68.2763 36.7412 68.0577 36.5821 67.8949C36.423 67.7321 36.2065 67.6381 35.9789 67.6328Z" fill="white" fill-opacity="0.5"/>
<path fill-rule="evenodd" clip-rule="evenodd" d="M20.001 75.0635C18.5135 75.0635 18.5135 77.3712 20.001 77.3712C21.4886 77.3712 21.49 75.0635 20.001 75.0635Z" fill="white" fill-opacity="0.5"/>
<path fill-rule="evenodd" clip-rule="evenodd" d="M100.025 90.2301C99.7021 94.324 98.8054 98.3445 98.3854 102.427C98.3854 102.733 98.5069 103.027 98.7233 103.243C98.9397 103.459 99.2332 103.581 99.5392 103.581C99.8435 103.575 100.134 103.452 100.349 103.237C100.564 103.022 100.687 102.731 100.693 102.427C101.114 98.3445 102.011 94.3258 102.333 90.2301C102.447 88.7468 100.141 88.7574 100.025 90.2301Z" fill="white" fill-opacity="0.5"/>
<path fill-rule="evenodd" clip-rule="evenodd" d="M101.782 85.1821C100.295 85.1821 100.295 87.4898 101.782 87.4898C103.269 87.4898 103.268 85.1821 101.782 85.1821Z" fill="white" fill-opacity="0.5"/>
<path fill-rule="evenodd" clip-rule="evenodd" d="M98.7109 105.271C97.2248 105.271 97.2248 107.579 98.7109 107.579C100.197 107.579 100.199 105.271 98.7109 105.271Z" fill="white" fill-opacity="0.5"/>
<path fill-rule="evenodd" clip-rule="evenodd" d="M88.7563 51.0379C90.6948 54.1556 92.1782 57.5239 94.0377 60.6841C94.1999 60.9038 94.4427 61.0503 94.7127 61.0913C94.9828 61.1323 95.258 61.0645 95.4782 60.9029C95.6939 60.7375 95.8372 60.495 95.878 60.2263C95.9189 59.9576 95.8542 59.6835 95.6974 59.4615C93.837 56.2995 92.354 52.9325 90.4165 49.8153C89.7136 48.6864 88.0594 49.9164 88.7563 51.0379Z" fill="white" fill-opacity="0.5"/>
<path fill-rule="evenodd" clip-rule="evenodd" d="M87.354 46.4678C86.2837 47.2552 87.5049 48.9139 88.5752 48.1293C89.6455 47.3447 88.4243 45.6799 87.354 46.4678Z" fill="white" fill-opacity="0.5"/>
<path fill-rule="evenodd" clip-rule="evenodd" d="M95.7837 62.5568C94.7129 63.3442 95.9356 65.003 97.0059 64.2184C98.0762 63.4337 96.8545 61.7685 95.7837 62.5568Z" fill="white" fill-opacity="0.5"/>
<path d="M67.5787 56.4147L62.4429 57.7917C59.1707 58.669 55.643 57.6374 52.5096 54.8868C49.5561 52.2903 47.2779 48.4293 46.0943 44.0146C44.9111 39.6016 44.9523 35.1194 46.2103 31.3937C47.5471 27.4433 50.0855 24.7848 53.358 23.9073L58.4937 22.5304C61.766 21.653 65.2938 22.6851 68.4273 25.4364C71.3811 28.0336 73.6591 31.894 74.8422 36.3068C76.0259 40.7214 75.9847 45.2042 74.7265 48.9295C73.389 52.8794 70.8506 55.5374 67.5787 56.4147ZM58.5356 54.7093C58.8449 54.7885 59.1526 54.8452 59.4579 54.8793C59.309 54.7836 59.1606 54.6842 59.0129 54.5813L58.5356 54.7093ZM54.5767 52.4839L56.1818 52.0535C55.6692 51.484 55.183 50.8731 54.7267 50.2253L52.8935 50.7168C53.4251 51.3726 53.9878 51.9636 54.5767 52.4839ZM51.0385 47.9273L53.0348 47.392C52.5165 46.3618 52.0667 45.2801 51.6905 44.1588L49.6275 44.7119C50.0168 45.8408 50.4891 46.9172 51.0385 47.9273ZM48.8052 41.645L50.8681 41.0918C50.6328 39.9321 50.481 38.7705 50.4145 37.6198L48.4182 38.1551C48.4477 39.3036 48.5773 40.472 48.8052 41.645ZM48.6289 34.8093L50.4619 34.3179C50.5332 33.5282 50.6486 32.7564 50.8073 32.0075L49.2024 32.4378C48.9528 33.184 48.761 33.977 48.6289 34.8093ZM51.5167 28.5304L51.9941 28.4024C52.0706 28.2393 52.1496 28.0789 52.2309 27.9213C51.9834 28.1036 51.745 28.3069 51.5167 28.5304Z" fill="white"/>
<path d="M67.3376 55.5233C70.303 54.7282 72.6147 52.2819 73.8498 48.6344C75.0498 45.0815 75.0859 40.7882 73.9485 36.5462C72.8118 32.3064 70.6327 28.607 67.8161 26.1304C64.9217 23.5889 61.6962 22.6272 58.7308 23.4223L53.595 24.7993C50.6296 25.5944 48.3176 28.0408 47.0829 31.6893C45.8831 35.2428 45.8472 39.536 46.9839 43.7758C48.1213 48.0179 50.3002 51.7173 53.1166 54.1933C56.0106 56.7337 59.2363 57.6953 62.2018 56.9002L67.3376 55.5233ZM55.7474 54.5008L59.1945 53.5766C60.3041 54.4005 61.4492 55.0025 62.6023 55.3672C62.3609 55.4649 62.1121 55.5478 61.8575 55.6161C59.8491 56.1546 57.7269 55.7071 55.7474 54.5008ZM51.3367 50.1781L55.1189 49.164C55.9543 50.4353 56.9049 51.5689 57.9481 52.5355L54.3454 53.5014C53.26 52.6104 52.2411 51.4879 51.3367 50.1781ZM48.45 44.0716L52.3023 43.0387C52.8276 44.8071 53.5357 46.4708 54.3955 47.9827L50.5857 49.0042C49.7168 47.5331 48.9878 45.8727 48.45 44.0716ZM47.4875 37.4485L51.2972 36.4271C51.3087 38.1647 51.5279 39.9594 51.9582 41.7551L48.1059 42.788C47.6701 40.9577 47.4706 39.1553 47.4875 37.4485ZM48.4926 31.672L52.0953 30.706C51.6756 32.0649 51.42 33.5236 51.332 35.0401L47.5498 36.0542C47.6778 34.4682 47.999 32.9882 48.4926 31.672ZM53.9392 26.0829C54.1937 26.0146 54.4511 25.9636 54.7086 25.9258C53.8932 26.8207 53.2024 27.9131 52.6537 29.1811L49.2066 30.1053C50.3171 28.0705 51.9308 26.6214 53.9392 26.0829ZM67.8157 57.3066L62.6799 58.6836C60.8694 59.1691 58.9937 59.1298 57.1051 58.5671C55.2921 58.0268 53.5404 57.0221 51.8986 55.5809C48.8092 52.865 46.4308 48.8426 45.2005 44.254C43.9707 39.667 44.018 34.995 45.3336 31.0987C46.0344 29.0277 47.0485 27.2811 48.3481 25.906C49.7017 24.4738 51.3062 23.5014 53.1169 23.0159L58.2526 21.6389C60.0633 21.1535 61.939 21.1928 63.8275 21.7557C65.6406 22.2962 67.3924 23.3013 69.0344 24.743C72.1239 27.4595 74.5021 31.4812 75.7319 36.068C76.9622 40.6566 76.915 45.3292 75.5991 49.2252C74.898 51.2958 73.8838 53.0421 72.5844 54.4168C71.2307 55.8489 69.6263 56.8212 67.8157 57.3066ZM51.5135 46.8439L51.7238 46.7875C51.502 46.2917 51.295 45.7863 51.1032 45.2718L50.8435 45.3414C51.0485 45.856 51.272 46.3573 51.5135 46.8439ZM49.5429 40.4911L49.8027 40.4215C49.7113 39.88 49.6376 39.3386 49.5817 38.7986L49.3713 38.855C49.4056 39.3969 49.4629 39.9429 49.5429 40.4911Z" fill="white"/>
<path d="M51.2958 36.4267L47.4861 37.4482C47.4755 39.2464 47.6834 41.0394 48.1052 42.7875L51.9582 41.7545C51.5355 40.0095 51.3132 38.222 51.2958 36.4267Z" fill="#F8CC5D"/>
<path d="M52.0892 30.7066L48.4849 31.673C47.9694 33.0829 47.6521 34.5576 47.5422 36.0547L51.3243 35.0407C51.404 33.5705 51.6608 32.1153 52.0892 30.7066Z" fill="#F8CC5D"/>
<path d="M52.2999 43.0382L48.4469 44.0713C48.9562 45.796 49.6731 47.4524 50.5819 49.0042L54.3908 47.983C53.508 46.4196 52.8065 44.7607 52.2999 43.0382Z" fill="#F8CC5D"/>
<path d="M54.699 25.9254C54.4394 25.9629 54.1824 26.0159 53.9291 26.084C51.9215 26.6223 50.3091 28.0716 49.1979 30.1052L52.6457 29.1808C53.1449 27.9893 53.8388 26.8892 54.699 25.9254Z" fill="#F8CC5D"/>
<path d="M55.1118 49.1652L51.3297 50.1792C52.1739 51.4206 53.1864 52.5387 54.3381 53.5016L57.9418 52.5354C56.8664 51.5299 55.9162 50.3983 55.1118 49.1652Z" fill="#F8CC5D"/>
<path d="M59.1915 53.5771L55.7438 54.5015C57.7234 55.7069 59.8444 56.1547 61.8529 55.6162C62.1063 55.5486 62.3554 55.4658 62.5989 55.3684C61.3716 54.9644 60.2201 54.359 59.1915 53.5771Z" fill="#F8CC5D"/>
<path d="M59.1006 24.6997C58.8472 24.7673 58.5981 24.8501 58.3546 24.9475C57.7518 25.1917 57.1866 25.5203 56.676 25.9233C53.0714 28.7401 51.6119 35.2691 53.4294 42.0482C55.247 48.8273 59.7769 53.7499 64.3076 54.387C64.9516 54.4805 65.6056 54.4821 66.2501 54.3918C66.5096 54.3544 66.7667 54.3014 67.02 54.2332C72.33 52.8095 74.8743 45.0272 72.6911 36.8848C70.508 28.7423 64.4106 23.276 59.1006 24.6997Z" fill="#F8CC5D"/>
<path d="M51.3193 36.4199L47.5095 37.4413C47.4989 39.2396 47.7068 41.0325 48.1287 42.7807L51.9817 41.7476C51.5589 40.0027 51.3367 38.2152 51.3193 36.4199Z" fill="#F8CC5D"/>
<path d="M52.1282 30.6998L48.524 31.6661C48.0084 33.076 47.6912 34.5507 47.5813 36.0479L51.3634 35.0339C51.443 33.5637 51.6998 32.1084 52.1282 30.6998Z" fill="#F8CC5D"/>
<path d="M52.3233 43.0319L48.4703 44.0649C48.9796 45.7896 49.6965 47.4461 50.6054 48.9979L54.4142 47.9767C53.5315 46.4133 52.83 44.7543 52.3233 43.0319Z" fill="#F8CC5D"/>
<path d="M54.7381 25.9185C54.4785 25.9561 54.2214 26.009 53.9682 26.0772C51.9605 26.6154 50.3481 28.0647 49.237 30.0983L52.6847 29.174C53.1839 27.9825 53.8779 26.8823 54.7381 25.9185Z" fill="#F8CC5D"/>
<path d="M55.1431 49.1588L51.361 50.1729C52.2052 51.4142 53.2176 52.5324 54.3693 53.4953L57.9731 52.5291C56.8977 51.5235 55.9475 50.3919 55.1431 49.1588Z" fill="#F8CC5D"/>
<path d="M59.2149 53.5702L55.7672 54.4946C57.7468 55.7001 59.8678 56.1479 61.8763 55.6094C62.1297 55.5417 62.3788 55.459 62.6223 55.3616C61.395 54.9576 60.2435 54.3522 59.2149 53.5702Z" fill="#F8CC5D"/>
<path d="M58.7552 23.4159L53.619 24.7929C50.6537 25.588 48.341 28.0346 47.1079 31.6828C45.9062 35.236 45.8709 39.5284 47.0081 43.7697C48.1453 48.011 50.3232 51.71 53.1412 54.1855C56.0339 56.727 59.2605 57.6889 62.2258 56.8939L67.3619 55.5168C70.3273 54.7217 72.6395 52.2753 73.8731 48.627C75.0756 45.0735 75.1099 40.7809 73.9729 36.54C72.8358 32.2991 70.6587 28.5995 67.8397 26.1242C64.9465 23.5824 61.7205 22.6208 58.7552 23.4159ZM53.9633 26.077C54.2165 26.0088 54.4736 25.9558 54.7332 25.9183C53.8724 26.8821 53.1781 27.9824 52.6785 29.1741L49.2308 30.0985C50.3415 28.065 51.9548 26.6155 53.9633 26.077ZM48.5162 31.6665L52.1204 30.7001C51.6924 32.1087 51.4359 33.5639 51.3564 35.034L47.5734 36.0482C47.6834 34.5511 48.0007 33.0764 48.5162 31.6665ZM47.5098 37.4417L51.3186 36.4204C51.3365 38.2157 51.5592 40.0031 51.9824 41.7479L48.1289 42.781C47.7069 41.0329 47.499 39.24 47.5098 37.4417ZM48.4732 44.0651L52.3262 43.032C52.8326 44.7544 53.534 46.4135 54.4166 47.9769L50.6082 48.998C49.6993 47.4463 48.9823 45.7898 48.4732 44.0651ZM54.3688 53.4951C53.2171 52.5322 52.2046 51.414 51.3604 50.1726L55.1434 49.1584C55.9478 50.3915 56.898 51.5231 57.9734 52.5286L54.3688 53.4951ZM61.8815 55.6098C59.873 56.1483 57.7514 55.7002 55.7724 54.4951L59.2201 53.5707C60.2484 54.3523 61.3995 54.9575 62.6264 55.3614C62.3829 55.4588 62.1338 55.5415 61.8804 55.6092M67.0165 54.2321C66.7633 54.3003 66.5062 54.3533 66.2466 54.3907C65.6022 54.481 64.9481 54.4794 64.3041 54.3859C59.7757 53.7501 55.2453 48.8252 53.4283 42.0483C51.6113 35.2715 53.0702 28.7403 56.6746 25.9226C57.1854 25.5194 57.7509 25.1908 58.3541 24.9466C58.5976 24.8491 58.8467 24.7664 59.1001 24.6988C64.4095 23.2762 70.5057 28.7418 72.6888 36.8843C74.872 45.0268 72.3277 52.809 67.0177 54.2327" fill="black"/>
<path d="M66.69 34.3534L66.885 48.1013C66.8888 48.1856 66.8698 48.2694 66.8298 48.3437C66.7898 48.4181 66.7304 48.4802 66.658 48.5235C66.5997 48.5563 66.5347 48.5754 66.4679 48.5792C66.3409 48.5809 66.2168 48.5412 66.1144 48.4662C66.012 48.3911 65.9367 48.2848 65.9 48.1633L63.5129 40.8463L59.6626 43.0356C59.5899 43.0746 59.5085 43.0942 59.4261 43.0925C59.3437 43.0908 59.2631 43.0679 59.1921 43.026C59.1144 42.9826 59.0468 42.923 58.994 42.8513C58.9412 42.7795 58.9044 42.6973 58.8861 42.6101L56.8669 32.7458C56.8419 32.6461 56.8493 32.5411 56.8879 32.446C56.9266 32.3508 56.9946 32.2704 57.082 32.2164L60.9682 30.006C61.0426 29.9659 61.1264 29.9461 61.2109 29.9486C61.2955 29.9511 61.3779 29.9758 61.4499 30.0202C61.5285 30.0664 61.596 30.1293 61.6477 30.2045C61.6993 30.2797 61.7337 30.3653 61.7486 30.4553L62.5945 35.7009L65.9023 33.82C65.9834 33.7773 66.0747 33.7581 66.1661 33.7648C66.2575 33.7715 66.3451 33.8037 66.419 33.8578C66.5002 33.9132 66.5671 33.987 66.6141 34.0733C66.6612 34.1595 66.6871 34.2557 66.6897 34.3539" fill="#FF007C"/>
<path d="M65.9026 33.8195L62.5949 35.7008L61.7484 30.4564C61.7334 30.3664 61.6988 30.2808 61.6471 30.2056C61.5954 30.1305 61.5278 30.0676 61.4492 30.0214C61.3772 29.977 61.2948 29.9522 61.2102 29.9497C61.1257 29.9473 61.042 29.9671 60.9675 30.0072L57.0818 32.216C56.9943 32.27 56.9263 32.3505 56.8877 32.4458C56.8491 32.541 56.8418 32.6461 56.8669 32.7458L58.886 42.6097C58.9037 42.6968 58.94 42.7792 58.9922 42.8512C59.0445 42.9231 59.1116 42.983 59.189 43.0269C59.26 43.0687 59.3406 43.0915 59.4229 43.0932C59.5053 43.0949 59.5868 43.0754 59.6594 43.0365L63.5096 40.8467L65.8968 48.1641C65.9335 48.2857 66.0087 48.3921 66.1112 48.4671C66.2136 48.5422 66.3377 48.5818 66.4647 48.5801C66.5315 48.5763 66.5965 48.5572 66.6548 48.5243C66.7273 48.481 66.7866 48.4189 66.8266 48.3446C66.8666 48.2703 66.8857 48.1865 66.8819 48.1022L66.6846 34.3548C66.682 34.2566 66.6561 34.1604 66.6091 34.0742C66.562 33.9879 66.4952 33.9141 66.414 33.8587C66.34 33.8046 66.2524 33.7724 66.161 33.7657C66.0697 33.759 65.9783 33.7782 65.8973 33.8209" fill="black"/>
</svg>
