<svg width="24" height="24" viewBox="0 0 24 24" fill="none" xmlns="http://www.w3.org/2000/svg">
<path d="M12.9254 3C13.9379 3.0027 14.4518 3.0081 14.8955 3.0207L15.0701 3.027C15.2717 3.0342 15.4706 3.0432 15.7109 3.054C16.6684 3.099 17.3218 3.25019 17.8951 3.47249C18.4891 3.70108 18.9895 4.01068 19.4899 4.51016C19.9475 4.96006 20.3016 5.50427 20.5275 6.10493C20.7498 6.67821 20.901 7.3316 20.946 8.29008C20.9568 8.52947 20.9658 8.72837 20.973 8.93086L20.9784 9.10546C20.9919 9.54825 20.9973 10.0621 20.9991 11.0746L21 11.746V12.925C21.0022 13.5814 20.9953 14.2379 20.9793 14.8941L20.9739 15.0687C20.9667 15.2712 20.9577 15.4701 20.9469 15.7095C20.9019 16.668 20.7489 17.3205 20.5275 17.8947C20.3023 18.4956 19.9481 19.04 19.4899 19.4894C19.0399 19.9469 18.4957 20.301 17.8951 20.5271C17.3218 20.7494 16.6684 20.9006 15.7109 20.9456C15.4973 20.9556 15.2837 20.9646 15.0701 20.9726L14.8955 20.978C14.4518 20.9906 13.9379 20.9969 12.9254 20.9987L12.254 20.9996H11.076C10.4192 21.0018 9.76247 20.9949 9.10592 20.9789L8.93132 20.9735C8.71767 20.9654 8.50408 20.9561 8.29053 20.9456C7.33296 20.9006 6.67957 20.7494 6.10539 20.5271C5.5048 20.3015 4.96081 19.9474 4.51152 19.4894C4.05347 19.0397 3.69904 18.4954 3.47295 17.8947C3.25065 17.3214 3.09946 16.668 3.05446 15.7095C3.04443 15.496 3.03543 15.2824 3.02746 15.0687L3.02296 14.8941C3.00637 14.2379 2.99887 13.5814 3.00046 12.925V11.0746C2.99795 10.4182 3.00455 9.76172 3.02026 9.10546L3.02656 8.93086C3.03376 8.72837 3.04276 8.52947 3.05356 8.29008C3.09856 7.3316 3.24975 6.67911 3.47205 6.10493C3.69804 5.50366 4.05318 4.95928 4.51242 4.51016C4.9616 4.0525 5.50523 3.69837 6.10539 3.47249C6.67957 3.25019 7.33206 3.099 8.29053 3.054C8.52993 3.0432 8.72972 3.0342 8.93132 3.027L9.10592 3.0216C9.76217 3.00561 10.4186 2.99871 11.0751 3.0009L12.9254 3ZM12.0002 7.4999C10.8068 7.4999 9.66224 7.97399 8.81834 8.81788C7.97445 9.66178 7.50035 10.8063 7.50035 11.9998C7.50035 13.1932 7.97445 14.3378 8.81834 15.1817C9.66224 16.0256 10.8068 16.4997 12.0002 16.4997C13.1937 16.4997 14.3383 16.0256 15.1822 15.1817C16.026 14.3378 16.5001 13.1932 16.5001 11.9998C16.5001 10.8063 16.026 9.66178 15.1822 8.81788C14.3383 7.97399 13.1937 7.4999 12.0002 7.4999ZM12.0002 9.29985C12.3548 9.29979 12.7059 9.36957 13.0335 9.5052C13.3611 9.64083 13.6588 9.83966 13.9095 10.0903C14.1603 10.341 14.3592 10.6386 14.4949 10.9662C14.6307 11.2937 14.7006 11.6448 14.7006 11.9993C14.7007 12.3539 14.6309 12.705 14.4953 13.0326C14.3597 13.3602 14.1608 13.6579 13.9102 13.9086C13.6595 14.1594 13.3619 14.3583 13.0343 14.494C12.7068 14.6298 12.3557 14.6997 12.0011 14.6997C11.2851 14.6997 10.5983 14.4153 10.092 13.9089C9.58567 13.4026 9.30121 12.7159 9.30121 11.9998C9.30121 11.2837 9.58567 10.597 10.092 10.0906C10.5983 9.58431 11.2851 9.29985 12.0011 9.29985M16.726 6.14993C16.4277 6.14993 16.1415 6.26845 15.9306 6.47942C15.7196 6.6904 15.6011 6.97654 15.6011 7.2749C15.6011 7.57326 15.7196 7.8594 15.9306 8.07038C16.1415 8.28135 16.4277 8.39987 16.726 8.39987C17.0244 8.39987 17.3105 8.28135 17.5215 8.07038C17.7325 7.8594 17.851 7.57326 17.851 7.2749C17.851 6.97654 17.7325 6.6904 17.5215 6.47942C17.3105 6.26845 17.0244 6.14993 16.726 6.14993Z" fill="#666666"/>
</svg>
