<svg width="40" height="40" viewBox="0 0 40 40" fill="none" xmlns="http://www.w3.org/2000/svg">
<rect width="40" height="40" rx="8" fill="#F7B28B"/>
<g clip-path="url(#clip0_1_2625)">
<path d="M20.918 24.5902L17.2458 28.2624C17.2458 28.2624 17.2459 28.2625 17.2458 28.2625C17.2458 28.2625 17.2458 28.2626 17.2457 28.2626C15.7271 29.7812 13.2562 29.7813 11.7375 28.2626C11.0017 27.5268 10.5967 26.5487 10.5967 25.5084C10.5967 24.4681 11.0017 23.4902 11.7372 22.7544C11.7373 22.7544 11.7374 22.7543 11.7375 22.7542L15.4096 19.082C15.9165 18.5749 15.9165 17.7528 15.4095 17.2459C14.9025 16.7389 14.0804 16.7389 13.5734 17.2459L9.90128 20.9181C9.90102 20.9183 9.90076 20.9187 9.9005 20.9189C8.67496 22.1449 8 23.7748 8 25.5084C8 27.2423 8.67522 28.8725 9.90136 30.0987C11.167 31.3642 12.8293 31.997 14.4917 31.997C16.154 31.997 17.8164 31.3642 19.0819 30.0987C19.082 30.0987 19.082 30.0985 19.082 30.0985L22.7541 26.4263C23.261 25.9193 23.261 25.0972 22.754 24.5902C22.2471 24.0832 21.4251 24.0832 20.918 24.5902Z" fill="black"/>
<path d="M32.0018 14.4917C32.0018 12.7577 31.3265 11.1275 30.1003 9.90137C27.5692 7.37032 23.4508 7.3704 20.9198 9.90137C20.9198 9.90154 20.9196 9.90163 20.9195 9.9018L17.2475 13.5737C16.7404 14.0807 16.7404 14.9029 17.2475 15.4098C17.5011 15.6635 17.8333 15.7902 18.1656 15.7902C18.4978 15.7902 18.8301 15.6634 19.0836 15.4098L22.7556 11.7379C22.7557 11.7377 22.7559 11.7376 22.756 11.7375C24.2746 10.2189 26.7455 10.2189 28.2642 11.7375C28.9999 12.4732 29.4051 13.4514 29.4051 14.4917C29.4051 15.5319 29.0001 16.5099 28.2645 17.2456L28.2642 17.2459L24.5921 20.9181C24.0852 21.425 24.0852 22.2471 24.5922 22.7542C24.8457 23.0077 25.178 23.1345 25.5102 23.1345C25.8425 23.1345 26.1748 23.0077 26.4283 22.7542L30.1004 19.082C30.1007 19.0817 30.1009 19.0814 30.1012 19.0811C31.3267 17.8551 32.0018 16.2252 32.0018 14.4917Z" fill="black"/>
<path d="M15.4115 24.5902C15.6651 24.8437 15.9973 24.9705 16.3295 24.9705C16.6618 24.9705 16.9941 24.8437 17.2476 24.5902L24.592 17.2458C25.0991 16.7388 25.0991 15.9167 24.592 15.4097C24.0851 14.9027 23.263 14.9027 22.7559 15.4097L15.4115 22.754C14.9045 23.2611 14.9045 24.0832 15.4115 24.5902Z" fill="black"/>
</g>
<defs>
<clipPath id="clip0_1_2625">
<rect width="24" height="24" fill="white" transform="translate(8 8)"/>
</clipPath>
</defs>
</svg>
