<svg width="24" height="24" viewBox="0 0 24 24" fill="none" xmlns="http://www.w3.org/2000/svg">
<path d="M20.6291 7.672C20.4217 6.90087 19.8137 6.29299 19.0427 6.08535C17.6341 5.69995 11.9998 5.69995 11.9998 5.69995C11.9998 5.69995 6.36567 5.69995 4.95711 6.07074C4.20092 6.27816 3.5781 6.90098 3.37068 7.672C3 9.08045 3 12.0014 3 12.0014C3 12.0014 3 14.9371 3.37068 16.3308C3.57832 17.1018 4.18609 17.7097 4.95722 17.9173C6.3805 18.3028 12 18.3028 12 18.3028C12 18.3028 17.6341 18.3028 19.0427 17.932C19.8138 17.7245 20.4217 17.1166 20.6294 16.3456C20.9999 14.9371 20.9999 12.0162 20.9999 12.0162C20.9999 12.0162 21.0148 9.08045 20.6291 7.672ZM10.2059 14.6999V9.30292L14.8912 12.0014L10.2059 14.6999Z" fill="#666666"/>
</svg>
